<!-- by TradingView --><svg xmlns="http://www.w3.org/2000/svg" width="56" height="56" viewBox="0 0 56 56"><path fill="#F0F3FA" d="M0 0h56v56H0z"/><path d="M36 31v2.75A10.77 10.77 0 0 1 29.4 36v-3c2.86 0 4.8-1.24 5.4-2H36Z" fill="#2CCBEB"/><path d="M11.64 25.15 9 24C10.3 20.6 13.55 20 15.08 20c4.71 0 5.91 3.43 5.92 5.15V36h-3v-2.02c-1.1 1.45-3.23 1.82-4.16 1.9v-2.73c2.98 0 4-2.73 4.16-4.04v-3.12c0-.3-.1-2.99-3-2.99-2.31 0-3.18 1.33-3.36 2.15Z" fill="#314FFC"/><path d="M13 36c3.15 0 4.84-1.42 5.27-2.13l-.7-2.97c-1.09 1.96-3.52 2.2-4.57 2.1v3Z" fill="url(#ayqv3rgse)"/><path d="M13 33v3c-3.76 0-4.9-3.15-5-4.72 0-4.43 5.42-5.4 8-5.28h18s.49 2.14 1 3H16.97c-3.26 0-5.9.15-5.9 2.04 0 1.51 1.28 1.91 1.93 1.96Z" fill="url(#byqv3rgse)"/><path d="M35.46 29h-.5l-2-2.77c0-2.67-2.64-3.22-3.96-3.23v-3c6.35 0 7 5.73 7 6.9 0 .94-.36 1.8-.54 2.1Z" fill="url(#cyqv3rgse)"/><path d="M29 20c.01.91.03 2.96 0 3-3.52 0-4.05 2.97-4 4.57 0 4.18 2.9 5.3 4.5 5.43v3c-6.53 0-7.55-5.63-7.5-8.43 0-6.01 4.52-7.55 7-7.57Z" fill="url(#dyqv3rgse)"/><path d="M37.22 31H35.8l-.22 2.38c.54.95 2.63 2.62 6.65 2.62 4.02 0 5.48-2.73 5.7-4.09.24-1.36-.18-4.28-3.77-5.06-4.49-.99-4.42-2.1-4.42-2.37 0-.28.36-1.48 2.5-1.48 1.7 0 2.61 1.35 2.85 2.12l2.66-.86A5.32 5.32 0 0 0 42.24 20c-4.8 0-5.6 3.4-5.6 4.48 0 1.08.58 3.64 4.3 4.39 3.7.75 4.06 2.02 4.06 2.38 0 .36-.22 1.75-2.97 1.75a7.18 7.18 0 0 1-4.81-2Z" fill="url(#eyqv3rgse)"/><defs><linearGradient id="ayqv3rgse" x1="13.5" y1="34.39" x2="17.99" y2="33.04" gradientUnits="userSpaceOnUse"><stop stop-color="#675FFD"/><stop offset="1" stop-color="#314FFC"/></linearGradient><linearGradient id="byqv3rgse" x1="12.97" y1="35.52" x2="12.86" y2="29.85" gradientUnits="userSpaceOnUse"><stop offset=".44" stop-color="#675FFD"/><stop offset="1" stop-color="#9E6FFF"/></linearGradient><linearGradient id="cyqv3rgse" x1="34.28" y1="27.87" x2="30.86" y2="21.78" gradientUnits="userSpaceOnUse"><stop stop-color="#9E6FFF"/><stop offset="1" stop-color="#8980FB"/></linearGradient><linearGradient id="dyqv3rgse" x1="25.65" y1="22.47" x2="27.19" y2="35.59" gradientUnits="userSpaceOnUse"><stop stop-color="#8980FB"/><stop offset=".86" stop-color="#2CCBEB"/></linearGradient><linearGradient id="eyqv3rgse" x1="40.41" y1="33.68" x2="43.01" y2="20.92" gradientUnits="userSpaceOnUse"><stop stop-color="#29CEEB"/><stop offset=".27" stop-color="#2BC79F"/><stop offset="1" stop-color="#2BBF37"/></linearGradient></defs></svg>