<!-- by TradingView --><svg xmlns="http://www.w3.org/2000/svg" width="56" height="56"><path fill="#F0F3FA" d="M0 0h56v56H0z"/><path d="M21 28.01V21.7l7 6.81-7 6.5v-6.99z" fill="#FBB812"/><path d="M21 35l-6.83-6.82 6.83-6.5V35z" fill="#F68121"/><path d="M35 21.69l-7 6.81-7-6.81h14z" fill="#019FDC"/><path d="M20.98 21.7L28 15l7 6.7H20.98z" fill="#0071B5"/><path d="M21 35l-6.83-6.83L7 35h14z" fill="#EB1C24"/><path d="M35 21.69l-7 6.81 7 6.5V21.69z" fill="#6CCEF5"/><path d="M35 35l6.85-6.82-6.85-6.5V35z" fill="#ACC32B"/><path d="M35 35l6.84-6.82L49 35H35z" fill="#01A451"/></svg>