<!-- by TradingView --><svg width="56" height="56" fill="none" xmlns="http://www.w3.org/2000/svg"><path fill="#015E70" d="M0 0h56v56H0z"/><path d="M12 27h-1.263c0-.151-.063-.37-.174-.656-.11-.286-.342-.822-.563-1.344H7.853l-.369.94c-.114.335-.316.696-.316 1.06H6c.338-.18.547-.866.679-1.195L9.016 20l2.431 5.89c.084.268.393.95.553 1.11Zm-3-4.661-.805 1.87H9.82L9 22.34ZM32 36h-1.263c0-.151-.063-.37-.174-.656-.11-.286-.342-.822-.563-1.344h-2.148l-.368.94c-.114.335-.316.696-.316 1.06H26c.338-.18.547-.867.679-1.195L29.016 29l2.431 5.89c.084.268.393.95.553 1.11Zm-3-4.661-.805 1.87h1.626L29 31.34ZM26 27h-1.263c0-.151-.063-.37-.174-.656-.11-.286-.342-.822-.563-1.344h-2.148l-.368.94c-.114.335-.316.696-.316 1.06H20c.338-.18.547-.866.679-1.195L23.016 20l2.431 5.89c.084.268.393.95.553 1.11Zm-3-4.661-.805 1.87h1.626L23 22.34ZM12.879 27c.139-.139.121-.78.121-1.013v-4.85c0-.259.043-.973-.121-1.137h1.208c-.15.306-.087.823-.087 1.155V26c1 0 2.832.047 3-.178V27h-4.121ZM18 25.972V21.01c0-.31.032-.713-.082-1.01h1.15c-.068.277-.068.718-.068 1.028v4.944c0 .32-.02.735.069 1.028H17.93c.046-.332.069-.684.069-1.028ZM28 22.226v3.95c0 .468.017.69.084.824h-1.201c.154-.077.117-.854.117-1v-6l5 5v-4c0-.279.029-.741-.1-1h1.217c-.117.152-.117.762-.117 1v6.296l-5-5.07ZM20 31.226v3.95c0 .468.017.69.084.824h-1.201c.154-.077.117-.854.117-1v-6l5 5v-4c0-.279.029-.741-.1-1h1.217c-.117.152-.117.762-.117 1v6.296l-5-5.07ZM7.607 35C8.208 35 9 34.709 9 34c0-1.226-3-.762-3-3.095C6 29.545 7.115 29 8.192 29c.523 0 1.03.086 1.534.219v1.284C9.412 30.118 8.873 30 8.393 30c-.543 0-1.388.169-1.388.821C7.005 32.376 10 31.734 10 34c0 1.243-1.051 2-2.192 2-.6 0-1.268-.094-1.808-.37v-1.262c.12.557 1.158.632 1.607.632ZM35.607 26c.601 0 1.393-.291 1.393-1 0-1.226-3-.762-3-3.095C34 20.545 35.115 20 36.192 20c.523 0 1.03.086 1.534.219l-.018 1.303c-.314-.386-.835-.522-1.315-.522-.543 0-1.388.169-1.388.821 0 1.554 2.995.913 2.995 3.179 0 1.243-1.051 2-2.192 2-.6 0-1.268-.094-1.808-.37v-1.262c.12.557 1.158.632 1.607.632ZM44.818 26.443c-.624.381-1.38.557-2.105.557C40.617 27 39 25.475 39 23.357 39 21.392 40.576 20 42.497 20c.863 0 1.67.198 2.503.506l-.166 1.27c-.507-.59-1.45-.776-2.204-.776-1.487 0-2.63.867-2.63 2.34 0 1.567 1.28 2.66 2.879 2.66.714 0 1.62-.304 1.906-1.029l.033 1.472ZM45.88 27c.173-.09.12-.863.12-1.028v-4.82c0-.259 0-1.031-.12-1.152H50v1.106c-.394-.135-1.315-.106-1.724-.106H47v2h1.241c.12 0 .7.03.759-.089v1.178c-.21-.109-.528-.089-.759-.089h-1.24v2h1.862c.226 0 1.03 0 1.137-.106V27h-4.12ZM32.88 36c.173-.09.12-.863.12-1.028v-4.82c0-.259 0-1.031-.12-1.152H37v1.106c-.394-.135-1.315-.106-1.725-.106H34v2h1.241c.12 0 .7.03.759-.089v1.178c-.211-.109-.528-.089-.759-.089H34v2h1.863c.226 0 1.03 0 1.137-.106V36h-4.12ZM14.585 35C16.131 35 17 33.986 17 32.558 17 31.074 16.04 30 14.45 30 12.922 30 12 31.014 12 32.425 12 33.91 12.983 35 14.585 35Zm-.102 1A3.458 3.458 0 0 1 11 32.508C11 30.542 12.467 29 14.45 29c1.995 0 3.55 1.464 3.55 3.475C18 34.492 16.503 36 14.483 36Z" fill="#F0F3FA"/></svg>