<!-- by TradingView --><svg xmlns="http://www.w3.org/2000/svg" width="56" height="56"><path fill="url(#a1qaq5fzf)" d="M0 0h56v56H0z"/><path d="M4 32l3-9h1l3 9h-1l-1.04-3h-2.9L5 32H4zm2.32-4h2.43L7.5 24l-1.18 4zM13 32v-9h3.32c1.48 0 2.68.9 2.68 2.53 0 1.31-1.07 2.47-1.95 2.47l2.58 4h-1.25l-2.57-4H14v4h-1zm1-5h2.32c1.08 0 1.68-.71 1.68-1.47S17.42 24 16.53 24H14v3zm7 5v-9h6v1h-5v3h4v1h-4v3h5v1h-6zm7 0v-1l5.69-7H28v-1h7v1l-5.68 7H35v1h-7zm8 0v-1l5.64-7H36v-1h7v1l-5.68 7H43v1h-7zm7-4.5c0-2.58 1.83-4.5 4.5-4.5 2.58 0 4.5 2.02 4.5 4.5 0 2.52-1.83 4.5-4.5 4.5a4.42 4.42 0 01-4.5-4.5zm1 0c0 1.83 1.58 3.5 3.5 3.5a3.5 3.5 0 100-7 3.38 3.38 0 00-3.5 3.5z" fill="#fff"/><defs><linearGradient id="a1qaq5fzf" x1="10.42" y1="9.71" x2="68.15" y2="76.02" gradientUnits="userSpaceOnUse"><stop stop-color="#1A1E21"/><stop offset="1" stop-color="#06060A"/></linearGradient></defs></svg>