<!-- by TradingView --><svg width="56" height="56" fill="none" xmlns="http://www.w3.org/2000/svg"><path fill="#004B8C" d="M0 0h56v56H0z"/><mask id="a" fill="#fff"><path fill-rule="evenodd" clip-rule="evenodd" d="M18 13v22l15.5-9s3.5-2.075 3.5-6c0-4.213-4.11-7-7.999-7H18Zm-1-1v24h1l16.18-9.265S38 24.59 38 20s-3.82-8-8.999-8H17Z"/></mask><path fill-rule="evenodd" clip-rule="evenodd" d="M18 13v22l15.5-9s3.5-2.075 3.5-6c0-4.213-4.11-7-7.999-7H18Zm-1-1v24h1l16.18-9.265S38 24.59 38 20s-3.82-8-8.999-8H17Z" fill="#2B2A29"/><path d="M18 13v-2h-2v2h2Zm0 22h-2v3.474l3.004-1.744L18 35Zm15.5-9 1.004 1.73.008-.005.008-.005L33.5 26ZM17 12v-2h-2v2h2Zm0 24h-2v2h2v-2Zm1 0v2h.532l.462-.264L18 36Zm16.18-9.265-.98-1.743-.007.004-.007.004.994 1.735ZM16 13v22h4V13h-4Zm3.004 23.73 15.5-9-2.008-3.46-15.5 9 2.008 3.46ZM33.5 26l1.021 1.72.002-.001.003-.002.008-.005.019-.011c.014-.01.032-.02.053-.033l.16-.105c.131-.088.306-.212.51-.371.407-.317.945-.787 1.485-1.41C37.837 24.541 39 22.594 39 20h-4c0 1.332-.587 2.384-1.261 3.162a6.632 6.632 0 0 1-1.205 1.082l-.06.04-.006.003.003-.002c.002 0 .003-.002.004-.003h.003v-.002c.002 0 .002 0 1.022 1.72Zm-4.499-15H18v4H29.001v-4ZM15 12v24h4V12h-4Zm2 26h1v-4h-1v4Zm1.994-.264 16.18-9.265L33.185 25l-16.18 9.264 1.988 3.472Zm15.186-11c.979 1.743.98 1.743.98 1.742h.002l.004-.003.008-.005.021-.012a3.85 3.85 0 0 0 .236-.145 8.99 8.99 0 0 0 .558-.394c.445-.339 1.03-.844 1.617-1.526C38.785 25.023 40 22.893 40 20h-4c0 1.696-.695 2.934-1.426 3.784a6.72 6.72 0 0 1-1.01.954 4.935 4.935 0 0 1-.373.258l-.005.004.004-.003.005-.002.002-.002h.002c0-.001.001-.001.98 1.742ZM40 20c0-5.907-4.941-10-10.999-10v4c4.3 0 6.999 2.727 6.999 6h4ZM29.001 10H17.001L17 12v2H29.002v-4ZM39 20c0-2.813-1.386-5.101-3.284-6.635C33.842 11.85 31.396 11 29.001 11v4c1.494 0 3.048.544 4.2 1.476C34.332 17.389 35 18.6 35 20h4Z" fill="#F0F3FA" mask="url(#a)"/><mask id="b" fill="#fff"><path fill-rule="evenodd" clip-rule="evenodd" d="M24 26v18.5L37 40c.362-.12 6-2 6-6.5S39.044 26 35 26H24Zm-1-1v21l15.562-5.375S44 38.935 44 33.5c0-5.5-4.35-8.5-9-8.5H23Z"/></mask><path fill-rule="evenodd" clip-rule="evenodd" d="M24 26v18.5L37 40c.362-.12 6-2 6-6.5S39.044 26 35 26H24Zm-1-1v21l15.562-5.375S44 38.935 44 33.5c0-5.5-4.35-8.5-9-8.5H23Z" fill="#2B2A29"/><path d="M24 26v-2h-2v2h2Zm0 18.5h-2v2.809l2.654-.919L24 44.5ZM37 40l-.633-1.897-.01.003-.011.004L37 40ZM23 25v-2h-2v2h2Zm0 21h-2v2.807l2.653-.917L23 46Zm15.562-5.375-.593-1.91-.03.01-.03.01.653 1.89ZM35 25v-2 2Zm-13 1v18.5h4V26h-4Zm2.654 20.39 13-4.5-1.308-3.78-13 4.5 1.308 3.78Zm12.979-4.493c.236-.078 1.967-.655 3.671-1.882C42.988 38.803 45 36.685 45 33.5h-4c0 1.315-.807 2.387-2.033 3.27a10.418 10.418 0 0 1-2.6 1.333l1.266 3.794ZM35 24H24v4h11v-4ZM23.653 47.89l15.562-5.374-1.306-3.781-15.562 5.375 1.306 3.78Zm14.91-7.265c.593 1.91.594 1.91.595 1.91l.001-.001.005-.001.01-.004.025-.008a5.318 5.318 0 0 0 .31-.11 11.49 11.49 0 0 0 3.03-1.756c1.683-1.364 3.461-3.669 3.461-7.155h-4c0 1.949-.941 3.207-1.978 4.047a7.493 7.493 0 0 1-1.94 1.127 3.673 3.673 0 0 1-.123.044h.004l.002-.002h.002s.002 0 .595 1.91ZM46 33.5c0-3.325-1.336-6.006-3.45-7.828C40.47 23.882 37.737 23 35 23v4c1.912 0 3.68.619 4.938 1.703C41.161 29.756 42 31.325 42 33.5h4ZM35 23H23.001L23 25v2h12v-4Zm-14 2v21h4V25h-4Zm24 8.5c0-5.84-5.103-9.5-10-9.5v4c3.191 0 6 2.34 6 5.5h4Z" fill="#F0F3FA" mask="url(#b)"/><path fill-rule="evenodd" clip-rule="evenodd" d="M23 46.004 17 36l1-.5 5 8.5v2.004Z" fill="#F0F3FA"/></svg>