<!-- by TradingView --><svg width="56" height="56" fill="none" xmlns="http://www.w3.org/2000/svg"><path fill="#F0F3FA" d="M0 0h56v56H0z"/><path d="m43 36-9-5v10l9-5Z" fill="#0060F1"/><path d="M34 41.003 25 46V36l9 5.003Z" fill="#459EF4"/><path d="m25 36 4.5-2.497L34 31v10l-4.5-2.503L25 36Z" fill="#027BFF"/><path d="m16 41.003 4.503-2.505L25 36v10l-4.497-2.498-4.503-2.5Z" fill="#64BAFF"/><path d="m16 21 9-5v10l-9-5Z" fill="#9185F5"/><path d="m25 16-4.497-2.497L16 11v10l9-5Z" fill="#A69DF7"/><path d="m25 26-9-5v10l9-5Z" fill="#7D61FA"/><path d="m34 20.973-9 5.03L34 31V20.973Z" fill="#0500FF"/><path d="m34 31 9-5v10l-9-5Z" fill="#0053FF"/><path d="M43 25.997 38.497 23.5 34 21v10l4.497-2.498L43 25.997Z" fill="#062EFE"/><path d="m16 31 9-5v10l-9-5Z" fill="#6924F2"/></svg>