<!-- by TradingView --><svg width="56" height="56" fill="none" xmlns="http://www.w3.org/2000/svg"><path fill="#033664" d="M0 0h56v56H0z"/><path fill-rule="evenodd" clip-rule="evenodd" d="M4 34h32v-.542c0-.804.5-1.458 1-1.458H5.552C4.696 32 4 32.654 4 33.458V34Z" fill="#009540"/><path fill-rule="evenodd" clip-rule="evenodd" d="M37 34h13.397c.884 0 1.603-.654 1.603-1.458V32H38.603c-.884 0-1.603.654-1.603 1.458V34Z" fill="#FED300"/><path d="M6 26.5h1.12c.582 0 .88.387.88.84 0 .617-.465.946-.985.946H6V26.5ZM4 30h3.6c1.394 0 2.4-.823 2.4-2.427 0-1.172-.509-1.898-1.216-2.144.583-.33.82-.611.82-1.414C9.605 23.193 9.082 22 7 22H4v8Zm2.014-6.5h.922c.5 0 .832.296.832.707 0 .514-.312.793-.832.793h-.922c-.014-.642 0-1.5 0-1.5ZM17 26.99c0-1.576-.94-2.99-3-2.99s-3 1.414-3 2.99c0 1.576.94 3.01 3 3.01s3-1.414 3-3.01Zm-1.5.01c0 1.21-.7 2-1.5 2s-1.5-.79-1.5-2c0-1.19.7-2 1.5-2s1.5.81 1.5 2ZM21.5 27.831c-.037.588-.414.969-.863.969-.93 0-.97-.285-.97-.604 0-.614 1.414-.647 1.833-.912v.547ZM23 26.25c0-1.095-.187-2.25-2.082-2.25-1.189 0-2.583.248-2.656 1.8h1.96c.019-.243-.015-.6.584-.6.318 0 .694.219.694.604 0 .365-.32.446-.6.507-.992.203-2.9.142-2.9 1.946 0 1.196.823 1.743 1.814 1.743.636 0 1.402-.162 1.813-.69h.019c-.019.163.019.528.075.69H23v-3.75ZM50.5 27.831c-.037.588-.414.969-.862.969-.93 0-.971-.285-.971-.604 0-.614 1.414-.647 1.833-.912v.547ZM52 26.25c0-1.095-.187-2.25-2.082-2.25-1.189 0-2.583.248-2.656 1.8h1.96c.019-.243-.015-.6.584-.6.318 0 .694.219.694.604 0 .365-.32.446-.6.507-.992.203-2.9.142-2.9 1.946 0 1.196.823 1.743 1.814 1.743.636 0 1.402-.162 1.813-.69h.019c-.019.163.019.528.075.69H52v-3.75ZM32 22h-2l-2 5-2-5h-2l3.429 8h1.142L32 22ZM34.5 22H33v1h1.5v-1ZM34.5 30H33v-6h1.5v6ZM41 25.792C40.946 24.342 39.52 24 38.455 24c-.993 0-2.455.383-2.455 1.812 0 .966.686 1.51 2.13 1.792.884.181 1.155.282 1.155.604s-.505.592-.74.592c-.42 0-.704-.196-.74-.6H36c.036 1.47 1.318 1.8 2.473 1.8 1.21 0 2.527-.423 2.527-2.013 0-.927-.56-1.37-1.191-1.591-.632-.242-1.354-.282-1.661-.443-.108-.06-.343-.14-.343-.302 0-.383.433-.443.704-.443.32 0 .776.272.776.584H41ZM44.5 22H43v2h-1v1h1v3.286C43 30 43.929 30 44.5 30H46v-1.5c-.176.022-.752 0-.928 0-.571 0-.572-.527-.572-1.11V25H46v-1h-1.5v-2Z" fill="#F0F3FA"/></svg>