<!-- by TradingView --><svg xmlns="http://www.w3.org/2000/svg" width="56" height="56"><path fill="#E5001C" d="M0 0h56v56H0z"/><path fill-rule="evenodd" d="M29.14 40.4c9.87-2.82 16.91-8.33 15.73-12.32-1.18-3.99-10.14-4.95-20-2.14-9.88 2.81-16.92 8.32-15.74 12.31 1.18 4 10.14 4.95 20 2.14zm-1.43-1.97c7.5-2.3 12.78-6.65 11.8-9.7-.97-3.04-7.84-3.63-15.33-1.32-7.5 2.32-12.79 6.66-11.81 9.7.98 3.05 7.84 3.64 15.34 1.32z" fill="url(#ajkxdbaol)"/><path d="M23 15.78V36h5V16h3.48c2.88 0 3.97 2.47 4 4.73a7.17 7.17 0 01-.85 3.63c.85-.02 3.2.13 4.28.21 1.75-1.64 2.1-4.26 2.07-5.37.07-4.03-3.98-5.2-5.74-5.2H22.1l.9 1.78z" fill="url(#bjkxdbaol)"/><defs><linearGradient id="ajkxdbaol" x1="42.28" y1="26.07" x2="17.59" y2="41.47" gradientUnits="userSpaceOnUse"><stop offset=".21"/><stop offset="1" stop-color="#EEE4A3"/></linearGradient><linearGradient id="bjkxdbaol" x1="31.54" y1="14" x2="31.54" y2="36.34" gradientUnits="userSpaceOnUse"><stop offset=".81"/><stop offset="1" stop-color="#E5001C"/></linearGradient></defs></svg>