<!-- by TradingView --><svg width="56" height="56" fill="none" xmlns="http://www.w3.org/2000/svg"><path fill="#F56E28" d="M0 0h56v56H0z"/><path fill-rule="evenodd" clip-rule="evenodd" d="M35.778 18a.263.263 0 0 0 .152-.267.255.255 0 0 0-.035-.102c-.968-2.226-2.266-4.46-3.854-6.335a.86.86 0 0 0-.648-.296c-.461 0-.7.374-.687.814 0 7.814-3.18 12.887-8.32 16.556-.038 0-.038.037-.038.074.274 3.357.846 6.281 1.914 9.491a.103.103 0 0 0 .115.065.098.098 0 0 0 .08-.102C23.911 29.712 28.404 22.258 35.775 18h.003Zm1.635 4.998C30.84 25.93 26.226 32.109 25.732 39h-.233c0-8 3.2-15.607 10.513-19.946a.306.306 0 0 1 .131-.054c.292 0 .295.065.336.202.482 1.34.846 2.068 1.09 3.465.019.03.03.065.032.1a.23.23 0 0 1-.188.233v-.002Zm-16.236 6.035c.01-.009.035-.033.048-.034.04-.001.078.053.107.109.294 3.117 1.1 5.783 2.076 8.771a.063.063 0 0 1 .007.036c-.003.043-.054.08-.106.085a.108.108 0 0 1-.057-.01c-2.831-1.832-5.99-2.76-9.313-3.55-.672-.131-.953-.53-.938-.925.013-.383.304-.761.783-.89 2.296-.925 5.602-2.443 7.393-3.591Zm16.392.98a.34.34 0 0 1 .163-.013c.17.028.288.184.265.346-.148 1.071-.774 2.118-1.041 3.168a.348.348 0 0 1-.234.222c-.555.114-.916.263-1.45.445-3.387 1.184-6.225 3.566-7.379 6.819-.195-.037-.117-.037-.311-.074.84-5.056 4.943-9.127 9.987-10.913Zm-1.02 4.997a.342.342 0 0 1 .077-.01c.184-.002.339.152.33.328a.29.29 0 0 1-.02.09c-1.224 3.553-3.546 6.576-6.22 9.318a.878.878 0 0 1-.722.259.856.856 0 0 1-.64-.408c-.273-.481-.42-.962-.73-1.407.76-3.935 3.938-6.933 7.923-8.17h.002Zm1.292-10.383c.078.851.156 1.74.156 2.63 0 .48 0 .962-.039 1.443 0 .112-.117.222-.233.297-.233.073-.467.148-.662.222-5.091 1.78-9.202 5.733-10.328 10.781a.366.366 0 0 1-.195-.037c.194-6.678 4.59-12.576 10.873-15.559a.297.297 0 0 1 .14-.036.284.284 0 0 1 .288.259Z" fill="#F0F3FA"/></svg>