<!-- by TradingView --><svg xmlns="http://www.w3.org/2000/svg" width="56" height="56" viewBox="0 0 56 56"><path fill="#194390" d="M0 0h56v56H0z"/><path fill-rule="evenodd" d="M20 33v-9.85c.66-.26 2.12-.37 2.67 1.22l2.3 6.03 2.3-6.03c.27-.65.93-1.75 2.73-1.22V33h-1.5v-7.2L25.59 33h-1.27l-2.82-7.2V33H20zM7.5 24.5c0-.82-.67-1.5-1.5-1.5v10h1.5v-1.05C8.08 32.6 8.9 33 9.79 33c1.77 0 3.21-1.57 3.21-3.5S11.56 26 9.79 26c-.9 0-1.7.4-2.29 1.05V24.5zm0 5c0 1.22.9 2.2 2 2.2s2-.98 2-2.2c0-1.21-.9-2.2-2-2.2s-2 .99-2 2.2zm8-.17V33H14v-7c.73 0 1.33.52 1.47 1.2.76-1.27 2-1.29 2.53-1.13l-.18 1.45c-1.45-.22-2.1.88-2.32 1.8zM32 27.56A4.16 4.16 0 0 1 35.33 26c2.23.03 2.64 1.65 2.67 2.33V33h-1.5v-1.15c-.2.35-.9 1.06-2.18 1.14A2.1 2.1 0 0 1 32 31.06c0-.65.3-1.78 2.47-2.19a8.37 8.37 0 0 0 2.03-.54c-.03-.33-.38-1-1.26-1-.87 0-1.55.46-1.79.7-.2.2-1.11.3-1.45-.47zm4.5 2.06c.02.58-.33 1.81-1.9 2.03-.37.05-1.1-.04-1.1-.71 0-.75 1.19-.97 2.5-1.22l.5-.1zM41 24.5c0-.83-.67-1.5-1.5-1.5v8.5c0 .83.67 1.5 1.5 1.5v-8.5zm2-1.5c.83 0 1.5.67 1.5 1.5V33a1.5 1.5 0 0 1-1.5-1.5V23zm7.92 4.03c-.28-.33-1.19-1-2.6-1.03-1.75-.03-2.55 1.17-2.53 2.13.03.97.8 1.76 2.25 1.98 1.43.22 1.45.63 1.46.87V31c.01.24-.25.77-1.17.74a3.5 3.5 0 0 1-2.05-.86l-.78 1.14c.37.33 1.44.99 2.83.98 1.72-.01 2.67-.98 2.67-2.12 0-1.17-.98-1.77-2.2-2-1.21-.24-1.52-.55-1.5-.89 0-.34.23-.67 1.1-.68.4 0 .71.14 1.12.38.51.3 1.13.11 1.4-.66z" fill="#fff"/></svg>