<!-- by TradingView --><svg xmlns="http://www.w3.org/2000/svg" width="56" height="56"><path fill="#F0F3FA" d="M0 0h56v56H0z"/><path fill-rule="evenodd" d="M52 21H18v13h34V21zm-8.17 3.56a.37.37 0 00-.27-.11.38.38 0 00-.29.11.38.38 0 00-.11.28c0 .1.04.2.12.28.07.08.17.12.28.12.1 0 .2-.04.27-.12a.38.38 0 00.12-.28c0-.11-.04-.2-.12-.28zm.05 4.63v-2.87h-.17l-1.08.43.06.14c.1-.03.19-.05.26-.05s.12.01.16.05c.04.03.07.09.09.17.02.11.03.36.03.75v1.38c0 .22-.02.37-.05.45a.34.34 0 01-.14.17.8.8 0 01-.35.05V30h1.73v-.14a.79.79 0 01-.35-.06.36.36 0 01-.14-.16 1.39 1.39 0 01-.05-.45zm-23.37-.13v-1.24a5.36 5.36 0 00.89.1c.52 0 .92-.13 1.2-.4.29-.27.43-.62.43-1.06 0-.31-.1-.59-.28-.82-.19-.23-.42-.4-.7-.5a3.4 3.4 0 00-1.11-.14H19v.14h.2c.2 0 .35.06.45.18.07.08.1.28.1.62v3.12c0 .3-.02.5-.07.58-.1.14-.26.22-.48.22H19V30h2.27v-.14h-.2c-.2 0-.36-.06-.46-.18-.07-.08-.1-.28-.1-.62zm.36-1.4l-.36-.07v-2.2c.2-.05.37-.07.5-.07.23 0 .42.05.6.14.16.1.3.25.39.45.1.2.14.4.14.63 0 .34-.1.6-.3.82-.2.2-.42.31-.7.31-.07 0-.16 0-.27-.02zm3.74-.54v-.8h-.16l-1.08.43.03.14c.1-.03.2-.05.28-.05.06 0 .12.01.17.05.04.04.07.1.09.18.02.07.03.32.03.74v1.39c0 .2-.01.33-.02.37a.33.33 0 01-.14.2.76.76 0 01-.4.09V30h1.82v-.14a.79.79 0 01-.37-.07.4.4 0 01-.18-.18c-.05-.1-.07-.25-.07-.45v-1.71c.12-.25.25-.42.36-.53.06-.05.1-.08.15-.08.06 0 .14.05.25.14.12.09.22.13.31.13a.3.3 0 00.24-.1c.07-.07.1-.16.1-.26a.4.4 0 00-.13-.3.5.5 0 00-.36-.13c-.31 0-.62.26-.92.8zm3.36-.8c.54 0 .98.2 1.3.61.28.36.42.76.42 1.21a2 2 0 01-.86 1.64c-.72.44-1.68.28-2.18-.4-.27-.36-.4-.68-.4-1.13 0-.33.07-.66.24-.98a1.66 1.66 0 011.48-.95zm-.12.25a.81.81 0 00-.42.13c-.27.16-.46.57-.46 1.22 0 .52.1.89.3 1.26.22.38.49.57.83.57.25 0 .46-.1.62-.31.17-.21.25-.57.25-1.08a2.2 2.2 0 00-.41-1.41.84.84 0 00-.7-.38zm3.21-.24l-1.1.45.05.12a.7.7 0 01.24-.05c.07 0 .14.01.18.04.05.04.08.08.1.15.02.06.03.2.03.44v3.67c0 .26-.01.42-.04.48a.27.27 0 01-.11.14.7.7 0 01-.37.09h-.1V32h1.87v-.14a.97.97 0 01-.4-.06.34.34 0 01-.16-.16 1.5 1.5 0 01-.04-.47v-1.49c.13.12.25.2.35.24.14.05.3.08.5.08.44 0 .8-.17 1.1-.5.35-.4.53-.8.53-1.42a2 2 0 00-.44-1.34 1.13 1.13 0 00-.9-.42c-.2 0-.4.06-.59.19-.18.12-.37.34-.55.66v-.84h-.15zm.15 2.3V27.4a2 2 0 01.46-.42.75.75 0 01.96.21c.25.3.37.71.37 1.26 0 .48-.1.75-.32 1.01-.16.2-.37.3-.63.3a.83.83 0 01-.54-.17.73.73 0 01-.26-.4 2.32 2.32 0 01-.04-.57zm3.6-.86c0 .53.14.84.4 1.14.26.3.57.46.92.46a1 1 0 00.6-.2c.18-.12.33-.35.44-.66l.13.08c-.06.36-.22.68-.48.98-.26.29-.6.43-.99.43-.43 0-.8-.16-1.1-.5-.3-.33-.47-.68-.47-1.24 0-.61.16-1.1.47-1.43.31-.35.7-.52 1.18-.52.4 0 .73.14.99.4s.38.62.38 1.06h-2.47zm0-.23h1.66a1.45 1.45 0 00-.08-.48.77.77 0 00-.3-.35.72.72 0 00-.4-.12.8.8 0 00-.58.25c-.17.17-.27.4-.3.7zm4-.42v-.8h-.16l-1.09.43.04.14c.1-.03.2-.05.28-.05.06 0 .12.01.16.05.05.04.08.1.1.18.02.07.03.32.03.74v1.39c0 .2-.01.33-.02.37a.33.33 0 01-.14.2.76.76 0 01-.4.09V30h1.82v-.14a.79.79 0 01-.37-.07.4.4 0 01-.18-.18c-.05-.1-.07-.25-.07-.45v-1.71c.12-.25.25-.42.36-.53.06-.05.1-.08.15-.08.06 0 .14.05.25.14.12.09.22.13.31.13a.3.3 0 00.24-.1c.07-.07.1-.16.1-.26a.4.4 0 00-.13-.3.5.5 0 00-.36-.13c-.31 0-.62.26-.92.8zm2.65-1.87v1.17h.84v.28h-.84v2.26c0 .23.03.39.1.47.07.08.15.12.26.12.08 0 .17-.03.25-.08a.53.53 0 00.18-.24h.16c-.1.26-.22.45-.39.58a.84.84 0 01-.52.19.7.7 0 01-.35-.1.61.61 0 01-.25-.28 1.52 1.52 0 01-.08-.58V26.7h-.57v-.13c.15-.06.3-.16.44-.3a2.32 2.32 0 00.65-1.02h.12zm4.01 2.52c0 .53.13.84.39 1.14.26.3.56.45.92.45a1 1 0 00.6-.19c.18-.13.32-.35.44-.66l.12.08c-.05.35-.21.68-.47.97-.27.3-.6.44-1 .44-.42 0-.79-.17-1.1-.5-.3-.34-.45-.68-.45-1.24 0-.61.15-1.1.47-1.43.31-.35.7-.52 1.18-.52.4 0 .73.14.99.4.25.26.38.62.38 1.06h-2.47zm0-.23h1.66a1.39 1.39 0 00-.09-.48.77.77 0 00-.29-.35.72.72 0 00-.4-.12.8.8 0 00-.58.25c-.17.17-.27.4-.3.7zm5.26 0v-1.22h-.13a.37.37 0 01-.08.12.16.16 0 01-.1.02 1.2 1.2 0 01-.26-.05 1.9 1.9 0 00-.51-.1c-.32 0-.58.1-.79.3a1 1 0 00-.3.74c0 .23.06.42.18.56.11.16.36.32.74.51l.4.18c.16.06.28.1.35.18.24.22.26.6.02.83a.62.62 0 01-.44.16.99.99 0 01-.69-.22c-.2-.19-.34-.52-.41-.88h-.13V30h.13c.03-.07.08-.1.14-.1.15 0 .31.02.47.05.16.02.32.05.49.05.6 0 1.19-.45 1.19-1.09 0-.42-.26-.65-.8-.9l-.56-.28a1.39 1.39 0 01-.5-.34.58.58 0 01-.12-.38c0-.12.06-.22.17-.32.11-.1.26-.14.44-.14.24 0 .44.07.59.2.16.14.28.4.38.79h.13z" fill="#1A4766"/><path fill-rule="evenodd" d="M17 21H4v13h13V21zm-7.1 7.55c0-.71-.56-1.12-1.2-1.25 0 0 .95-.11.95-.89 0-1.16-1.3-1.41-2.23-1.41H5.24v.14h.2c.2 0 .35.06.45.18.08.08.11.29.11.62v3.12c0 .3-.03.5-.09.58-.1.15-.25.22-.47.22h-.2V30h2.4a4 4 0 001.32-.16c.53-.2.94-.7.94-1.29zm-3.07-1.4h-.08v-1.8c.21-.06.34-.09.6-.09.68 0 1.49.33 1.49 1.12 0 .76-.85.82-1.45.82a6.62 6.62 0 01-.56-.04zm.71 2.57c-.3 0-.48-.03-.79-.1V27.5l.05-.01.13-.02h.41c.67 0 1.65.36 1.65 1.15 0 .78-.77 1.1-1.45 1.1zm6.79.28h1.41v-.14c-.29-.04-.52-.1-.7-.22-.18-.12-.4-.35-.65-.7l-1.09-1.22c.45-.1.77-.27.99-.5.2-.25.32-.53.32-.86 0-.3-.1-.56-.29-.78a1.4 1.4 0 00-.68-.45A4.5 4.5 0 0012.4 25h-1.93v.14h.2c.2 0 .35.06.46.18.07.08.1.28.1.62v3.12c0 .3-.02.5-.08.58-.1.14-.25.22-.48.22h-.2V30h2.27v-.14h-.2c-.2 0-.35-.06-.45-.18-.07-.08-.09-.28-.09-.62v-1.24h.54L14.33 30zm-2.22-2.42H12v-2.2c.26-.06.44-.08.6-.08.33 0 .6.1.81.3.21.22.32.48.32.81 0 .34-.13.62-.39.84-.26.22-.64.33-1.14.33h-.1z" fill="#B0B0B4"/></svg>