<!-- by TradingView --><svg xmlns="http://www.w3.org/2000/svg" width="56" height="56"><path fill="url(#aspyaiu4k)" d="M0 0h56v56H0z"/><path d="M41.67 21.95c-.28 2.84-1.03 3.8-1.4 4.35l-2.55-2.24c.46-.59.55-1.65.53-2.11-.82-5.08-7.18-6.54-10.02-6.54-9.65 0-12.85 8.16-12.85 12.5.2 9.38 8.58 12.98 12.85 12.71 7.64-.48 10.4-5.24 10.35-6.86a5.2 5.2 0 00-1.15-2.92 212.6 212.6 0 00-6.36-6.05 4.67 4.67 0 00-3.03-1.22 4.37 4.37 0 00-4.32 4.34 4.5 4.5 0 004.51 4.51c2.4 0 4.08-2.21 4.85-3.28l2.54 2.35-2.21 2.27a7.6 7.6 0 01-5.37 1.99 7.71 7.71 0 01-7.73-7.55c.16-6.01 4.8-7.88 7.92-7.96a6.86 6.86 0 014.85 1.7l6.53 6.26a7.46 7.46 0 012.38 5.56c-.6 7.46-9.2 10.43-13.76 10.23-12.1-.54-16.49-10.23-16.22-16.08C12.61 15.21 23.06 12 28.23 12c8.91 0 13.8 6.33 13.44 9.95z" fill="#fff"/><defs><linearGradient id="aspyaiu4k" x1="0" y1="28" x2="56" y2="28" gradientUnits="userSpaceOnUse"><stop stop-color="#41ABEA"/><stop offset="1" stop-color="#0B2C65"/></linearGradient></defs></svg>