<!-- by TradingView --><svg width="56" height="56" fill="none" xmlns="http://www.w3.org/2000/svg"><path fill="#F0F3FA" d="M0 0h56v56H0z"/><path fill-rule="evenodd" clip-rule="evenodd" d="M18 28.5a3.5 3.5 0 1 0-7 0 3.5 3.5 0 0 0 7 0Zm-1.5 0c0-1.109-.891-2-2-2-1.087 0-2 .891-2 2 0 1.11.89 2 2 2 1.109 0 2-.89 2-2Z" fill="#006AA7"/><path fill-rule="evenodd" clip-rule="evenodd" d="M41.5 32a3.506 3.506 0 0 0 3.5-3.398V25h-3.5a3.5 3.5 0 1 0 0 7Zm2.005-3.5v-2.005h-2.114a2.024 2.024 0 0 0-1.896 2.005 2 2 0 0 0 2.005 2.005 2 2 0 0 0 2.005-2.005Z" fill="#84BD00"/><path fill-rule="evenodd" clip-rule="evenodd" d="M10.225 30.697a3.5 3.5 0 1 1 .123-4.233l-1.081 1.08a2 2 0 0 0-1.767-1.05c-1.09 0-2.006.894-2.006 2.006 0 1.112.894 2.006 2.006 2.006a2 2 0 0 0 1.662-.878l1.063 1.07ZM51.874 25.543l-.61 1.145S48 25.804 48 26.814c0 1.186 4 .969 4 2.926 0 1.957-2.232 2.26-2.863 2.26-.653 0-1.98-.121-3.137-.888l.758-1.24s3.742 1.563 3.742.07c0-1.07-4.1-.706-4.1-3.007 0-2.522 4.316-2.098 5.474-1.392ZM37 28.5a3.5 3.5 0 1 0-7 0 3.5 3.5 0 0 0 7 0Zm-1.5 0c0-1.109-.891-2-2-2-1.087 0-2 .891-2 2 0 1.11.89 2 2 2 1.109 0 2-.89 2-2Z" fill="#006AA7"/><path fill-rule="evenodd" clip-rule="evenodd" d="M35.5 25H37v7.5h-1.5V25Z" fill="#006AA7"/><path fill-rule="evenodd" clip-rule="evenodd" d="M30.355 34.038a3.5 3.5 0 1 0 5.145-4.41v2.821a2.153 2.153 0 0 1 0 .102v.095h-.005a1.995 1.995 0 0 1-1.995 1.855c-.806 0-1.496-.47-1.814-1.153l-1.206.605-.125.084ZM20.5 27.54s0-1.04 1.325-1.04C23 26.5 23 27.54 23 27.54V32h1.5v-4.54s.176-.96 1.29-.96c1.132 0 1.21 1 1.21 1V32h1.5v-5.092S28.406 25 26.258 25C24.539 25 24 26.347 24 26.347S23.766 25 22.437 25c-1.328 0-1.937 1-1.937 1v-1H19v7h1.5v-4.46Z" fill="#006AA7"/></svg>