<!-- by TradingView --><svg width="56" height="56" xmlns="http://www.w3.org/2000/svg"><path fill="#00AEEF" d="M0 0h56v56H0z"/><rect x="35" y="19" width="2" height="16" rx="1" fill="#fff"/><rect x="17" y="23" width="2" height="12" rx="1" fill="#fff"/><path d="M19.535 20.4a1.4 1.4 0 01-2.377.972 1.4 1.4 0 01-.42-.972 1.4 1.4 0 011.398-1.4 1.396 1.396 0 011.398 1.4zM44.783 22.55a6.185 6.185 0 00-4.7 2.153l1.645 1.409a4.044 4.044 0 015.69-.423 4.062 4.062 0 01.466 5.695l1.645 1.408a6.233 6.233 0 00.894-6.637 6.22 6.22 0 00-5.64-3.605z" fill="#383F45"/><path d="M44.83 34.943a6.186 6.186 0 004.7-2.154l-1.645-1.408a4.044 4.044 0 01-5.69.422 4.062 4.062 0 01-.466-5.695l-1.645-1.407a6.232 6.232 0 00-.894 6.637 6.22 6.22 0 005.64 3.605zM15.037 32.05A1.09 1.09 0 0013.67 32a4.047 4.047 0 01-5.899-1.08 4.06 4.06 0 011.635-5.776 4.052 4.052 0 014.254.4 1.085 1.085 0 001.63-1.344 1.079 1.079 0 00-.302-.368A6.21 6.21 0 005.93 25.5a6.234 6.234 0 00.011 6.571 6.213 6.213 0 009.062 1.636 1.07 1.07 0 00.033-1.657z" fill="#fff"/><path fill-rule="evenodd" d="M23.428 30.611c-.147-.301.092-.627.428-.627H32.5a1 1 0 001-1c0-3.425-2.585-6.484-6.25-6.484a6.25 6.25 0 103.68 11.302 1 1 0 00-1.179-1.616 4.25 4.25 0 01-6.323-1.575zM27.25 24.5a4.252 4.252 0 00-4.033 2.904c-.098.296.139.58.45.58h7.114c.317 0 .556-.293.45-.593-.592-1.684-2.108-2.891-3.981-2.891z" fill="#fff"/></svg>