<!-- by TradingView --><svg width="56" height="56" fill="none" xmlns="http://www.w3.org/2000/svg"><path fill="url(#a)" d="M0 0h56v56H0z"/><path d="M37 26c.343.469.683 1.035 1 1.492 1.681-2.032 3.388-4.252 4.55-6.164a15.951 15.951 0 0 0-.83-1.567C40.597 21.683 38.832 23.85 37 26ZM35.75 27.56c.377.479.73.933 1.058 1.364-.608.704-1.22 1.393-1.819 2.056a122.82 122.82 0 0 0-1.123-1.364c.635-.676 1.266-1.363 1.884-2.055ZM37.591 29.964a85.762 85.762 0 0 1-1.782 2.04c.285.362.553.71.803 1.042a68.69 68.69 0 0 0 1.744-2.032 70.893 70.893 0 0 0-.765-1.05ZM38.996 31.93a47.181 47.181 0 0 1-1.772 1.951c.095.133.776.83.78.824 0 0 .558-.722 1.532-1.959a33.72 33.72 0 0 0-.54-.815ZM38.199 35.375c.653-.699 1.277-1.343 1.801-1.933.305.528.408.86.395.992-.076.76-3.326 6.54-3.52 6.886-.725.483-1.492.91-2.293 1.272 2.03-2.967 3.617-7.217 3.617-7.217ZM41.322 33c-.086-.274-.192-.442-.322-.748 2.208-2.59 2.947-3.84 3-3.932-.007.365-.026.727-.058 1.086-2.62 3.594-2.036 2.79-2.62 3.594ZM41.478 33.729c-2.841 5.489-2.94 5.708-3.75 6.98a15.996 15.996 0 0 0 6.015-9.817 101.71 101.71 0 0 1-2.265 2.837ZM43.78 25.325c.09.534.154 1.076.19 1.626a202.15 202.15 0 0 1-3.374 4.441c-.138-.274-.29-.558-.452-.849a49.373 49.373 0 0 0 3.636-5.218ZM35.49 34.27c-.256-.3-.544-.63-.859-.984a99.777 99.777 0 0 1-1.796 1.87c.355.377.548.594.773.844 1.32-1.16 1.308-1.116 1.883-1.73ZM34.198 36.708s.741-.578 1.905-1.702c.487.603.897 1.009.897 1.153 0 1.255-3.35 6.746-3.35 6.746l-.056.094c-.744.277-1.514.5-2.306.666 1.323-2.9 2.956-6.58 2.91-6.957ZM43.47 23.893c-.672 1.11-1.982 3.148-3.922 5.636a40.99 40.99 0 0 0-.697-1.093c2.72-3.39 3.967-5.564 4.178-5.944.168.458.316.925.442 1.401ZM32.549 30.997c.427.461.833.903 1.212 1.322-.634.683-1.243 1.325-1.808 1.911-.39-.406-.82-.851-1.282-1.326.615-.615 1.245-1.253 1.878-1.907ZM29 34.42l1.488 1.312a117.736 117.736 0 0 1-1.992 1.973L27 36.467c.635-.6 1.277-1.343 2-2.047ZM28.852 39c-.262 1.158-.823 3.346-1.609 4.985a16.305 16.305 0 0 0 2.758-.106c.941-1.872 2.55-5.208 2.55-6.151l-1.167-1.129c-.748.73-.884.901-2.532 2.401ZM36.277 25c2.19-2.776 3.875-5.308 4.657-6.424C38.024 14.59 33.315 12 28.002 12c-.845 0-1.674.065-2.484.192l.052.043S31.622 18.85 36.277 25ZM34.99 26.514c-.585.716-1.267 1.447-1.898 2.183-5.487-6.472-13.091-14.5-13.091-14.5l-.037-.035a15.918 15.918 0 0 1 2.928-1.329c5.252 5.582 9.284 10.18 12.097 13.68ZM31.794 30.184c-4.575-4.9-11.027-11.475-14.01-14.498a16.09 16.09 0 0 0-2.109 2.111l.011.007S24.5 26.58 29.965 32.178a88.223 88.223 0 0 0 1.829-1.994ZM28.436 33.746l-14.264-13.8a15.918 15.918 0 0 0-1.364 3.02l13.56 12.74a56.515 56.515 0 0 0 2.068-1.96ZM24.81 37 12.134 25.929a16.143 16.143 0 0 0 .009 4.213l10.335 8.627c.82-.526 1.58-1.154 2.334-1.769ZM23.21 39.926l.007-.002s.935-.82 2.403-2.175l1.675 1.469-1.417 4.645a15.896 15.896 0 0 1-3.242-.782l.573-3.155ZM20.87 42.33a16.058 16.058 0 0 1-7.798-8.558L21 40.238l-.13 2.092Z" fill="#F0F3FA"/><defs><linearGradient id="a" x1="56" y1="28" x2="0" y2="28" gradientUnits="userSpaceOnUse"><stop stop-color="#E58701"/><stop offset="1" stop-color="#E17900"/></linearGradient></defs></svg>