<!-- by TradingView --><svg xmlns="http://www.w3.org/2000/svg" width="56" height="56"><path fill="#F0F3FA" d="M0 0h56v56H0z"/><path fill-rule="evenodd" d="M8 35.34A2.68 2.68 0 0010.67 38h34.66A2.66 2.66 0 0048 35.34V24H8v11.34zM8 19h40v-1H8v1zm0 4h40v-3H8v3zm6.82 9c-1.22 0-2.1-.74-2.1-1.98 0-1.3.84-2.02 2.03-2.02.57 0 1.13.16 1.64.42l.07-1.12a6.86 6.86 0 00-1.86-.3c-2.07 0-3.6 1.01-3.6 3.03 0 2.19 1.93 2.97 3.6 2.97.63 0 1.26-.08 1.87-.23l-.08-1.08c-.5.2-1.03.3-1.57.31zm4.79-5c2.06 0 3.14 1.14 3.14 3s-1.1 3-3.14 3c-2.05 0-3.15-1.16-3.15-3 0-1.85 1.08-3 3.15-3zm0 5c1 0 1.42-1.05 1.42-2 0-1-.4-2-1.42-2s-1.43 1-1.43 2c0 .95.4 2 1.43 2zm8.26-3c0-1.3-.9-2-2.81-2H23v6h1.73v-2h.65c1.56 0 2.49-.83 2.49-2zm-2.71 1h-.44v-2h.44c.57 0 1.03.38 1.03.98A1 1 0 0125.16 30zm4-3h2.05l2.43 6H31.8l-.36-1h-2.57l-.4 1h-1.7l2.38-6zm0 4h2.05l-1.02-3-1.03 3zm6.3-2.32c.01-.5.73-.68 1.15-.68.48 0 .95.11 1.4.3l.09-1.08a5.67 5.67 0 00-1.62-.22c-1.26 0-2.74.38-2.74 1.77 0 1.23 1.01 1.51 1.85 1.75.6.17 1.12.31 1.12.76 0 .47-.5.72-1.03.72-.6 0-1.19-.12-1.73-.38l-.15 1.12c.61.17 1.24.25 1.88.25 1.39 0 2.76-.4 2.76-1.9 0-1.26-1.07-1.54-1.92-1.76-.57-.15-1.05-.27-1.05-.65zm0 0zM42.53 27h-2.1L38 33h1.73l.4-1h2.66l.34 1H45l-2.48-6zm0 4h-2.1l1.06-3 1.04 3z" fill="#0268B1"/></svg>