<!-- by TradingView --><svg xmlns="http://www.w3.org/2000/svg" width="56" height="56"><path d="M0 28a28 28 0 1156 0 28 28 0 01-56 0z" fill="#F0F3FA"/><path d="M16.17 24.77C19.23 18.55 25.52 12.7 28 8c2.48 4.7 8.77 10.55 11.83 16.77C44.03 33.31 38.59 44 28 44S11.98 33.3 16.17 24.77z" fill="#FFB70D"/><path d="M28 44c-10.59 0-16.02-10.7-11.83-19.23a44.71 44.71 0 015-7.53C16.77 25.9 22.95 35 30.5 35c4.5-1 4.57-5.27.5-6.97a9.94 9.94 0 019.13 7.07c.17.57.15.82-.1 1.36A12.84 12.84 0 0128 44z" fill="#FF8B25"/><path d="M40.13 35.1C38.44 29.5 34 28.03 31 28.03c2 .5 3.17 2.04 3.5 4.1.77 4.61-1.7 10.27-6.5 11.87a12.77 12.77 0 0012.04-7.54c.24-.54.26-.8.09-1.36z" fill="#D24127"/><path d="M34 31.5a3.5 3.5 0 11-7 0 3.5 3.5 0 017 0z" fill="#3E3E3D"/></svg>