<!-- by TradingView --><svg width="56" height="56" fill="none" xmlns="http://www.w3.org/2000/svg"><path fill="#00696D" d="M0 0h56v56H0z"/><path fill-rule="evenodd" clip-rule="evenodd" d="M6 22h8v2H6v-2ZM6 26h8v2H6v-2ZM6 30h8v2H6v-2Z" fill="#F0F3FA"/><path fill-rule="evenodd" clip-rule="evenodd" d="M6 32h5l-5-6v6Z" fill="#F60"/><path fill-rule="evenodd" clip-rule="evenodd" d="M15 25h1l1 1.184S18.006 25 19.485 25C20.965 25 22 26.443 22 27v5h-2v-3.741S19.818 27 18.56 27c-1.257 0-1.552 1.259-1.552 1.259V32H15v-7ZM31 25h2v4s.309 1 1.408 1c1.1 0 1.592-.8 1.592-1.325V25h2v7h-1l-1-1s-1.115 1-2.325 1C32.43 32 31 30.795 31 29.5V25ZM39 23h2v2h2v1h-2v4s.248.618 1 0l1 1s-.463 1-1.752 1C39.958 32 39 31.16 39 30v-7ZM28.05 31.05c-.536.589-1.258.95-2.05.95-1.652 0-3-1.571-3-3.5s1.348-3.5 3-3.5c.767 0 1.468.339 2 .895V25h2v7h-1l-.95-.95ZM28 28.5a1.5 1.5 0 1 0-3 0 1.5 1.5 0 0 0 3 0ZM49.05 31.05c-.536.589-1.258.95-2.05.95-1.652 0-3-1.571-3-3.5s1.348-3.5 3-3.5c.767 0 1.468.339 2 .895V25h2v7h-1l-.95-.95ZM49 28.5a1.5 1.5 0 1 0-3 0 1.5 1.5 0 0 0 3 0Z" fill="#F0F3FA"/></svg>