<!-- by TradingView --><svg xmlns="http://www.w3.org/2000/svg" width="56" height="56"><path fill="#F0F3FA" d="M0 0h56v56H0z"/><path opacity=".8" d="M23.96 19.59l.3-9.5-2.19.69-.2 6.87-5.96-3.4-1.74 1.69 8.3 4.4 1.49-.75z" fill="#D14132"/><path opacity=".8" d="M20.5 22.55l-4.6-8.3-1.72 1.68 3.53 6.04-6.96.23-.48 2.23 9.34-.46.88-1.42z" fill="#D14132"/><path opacity=".8" d="M18.88 27.1l-8.13-4.91-.47 2.23 5.9 3.55-5.9 3.53.62 2.34 7.9-5.06.08-1.67z" fill="#D14132"/><path opacity=".8" d="M19.7 31.93l-9.43-.43.62 2.33 6.86.17-3.42 5.95L16 41.7l4.44-8.28-.75-1.5z" fill="#D14132"/><path opacity=".8" d="M28.74 18.7l4.95-8.03-2.29-.65L27.86 16l-3.6-5.91-2.2.7 5.05 7.91h1.63z" fill="#E8A82F"/><path opacity=".8" d="M33.15 20.3l8.25-4.32-1.73-1.66-5.9 3.22-.05-6.87-2.33-.66.35 9.39 1.4.91z" fill="#E8A82F"/><path opacity=".8" d="M36.32 24.2l9.4.18-.57-2.32H38.2l3.22-6.07-1.74-1.69-4.16 8.43.8 1.47z" fill="#E8A82F"/><path opacity=".8" d="M37.05 28.61l7.97 5.13.64-2.31-5.88-3.63 5.95-3.42-.57-2.36-8 4.92-.1 1.67z" fill="#E8A82F"/><path opacity=".8" d="M35.38 33.19l4.47 8.43 1.69-1.71-3.39-6.1 6.87-.06.66-2.33-9.39.36-.9 1.4z" fill="#1696A7"/><path opacity=".8" d="M31.68 36.47l-.25 9.4 2.33-.62.05-6.9 6.04 3.27 1.7-1.73-8.4-4.21-1.47.79z" fill="#1696A7"/><path opacity=".8" d="M27 37.29l-4.84 8 2.32.65 3.4-5.95 3.55 5.88 2.34-.63-5.1-7.89L27 37.3z" fill="#1696A7"/><path opacity=".8" d="M22.7 35.65l-8.38 4.3 1.67 1.75 6.1-3.28.06 6.87 2.34.65-.38-9.39-1.4-.9z" fill="#1696A7"/></svg>