<!-- by TradingView --><svg xmlns="http://www.w3.org/2000/svg" width="56" height="56"><path fill="url(#aovksrpti)" d="M0 0h56v56H0z"/><path fill-rule="evenodd" d="M7 21h20v15H7V21zm9 12H9.97v-9H16v1h-5v3h5v1h-5v3h5v1zm8 0h-7v-1l5.8-7H17v-1h7v1.3L18.37 32H24v1z" fill="#EC1C24"/><path d="M25 34H9V23h16v11zM8 35h18V22H8v13zm24-9h3v-1h-7v1h3v8h1v-8zm4 8h6v-1h-5v-3h5v-1h-5v-3h5v-1h-6v9zm8-3v-3.06c0-1 .96-1.94 1.99-1.94H49v-1h-2.87C44.19 25 43 26.28 43 28.39v2.22c0 2.23 1.25 3.39 3.13 3.39H49v-1h-3.01c-1.03-.06-1.99-1-1.99-2z" fill="#fff"/><defs><linearGradient id="aovksrpti" x1="10.42" y1="9.71" x2="68.15" y2="76.02" gradientUnits="userSpaceOnUse"><stop stop-color="#1A1E21"/><stop offset="1" stop-color="#06060A"/></linearGradient></defs></svg>