<!-- by TradingView --><svg width="56" height="56" fill="none" xmlns="http://www.w3.org/2000/svg"><path fill="#009DE4" d="M0 0h56v56H0z"/><path fill-rule="evenodd" clip-rule="evenodd" d="M28 45c9.389 0 17-7.611 17-17s-7.611-17-17-17-17 7.611-17 17 7.611 17 17 17Zm0-1c8.837 0 16-7.163 16-16s-7.163-16-16-16-16 7.163-16 16 7.163 16 16 16Z" fill="#F0F3FA"/><path fill="#F0F3FA" d="M19 23h7v2h-7z"/><path fill="#F0F3FA" d="M19 37V23h3v14zM37 23h-7v2h7z"/><path fill="#F0F3FA" d="M37 37V23h-3v14z"/><circle cx="20.5" cy="19.5" r="1.5" fill="#F0F3FA"/><circle cx="35.5" cy="19.5" r="1.5" fill="#F0F3FA"/></svg>