<!-- by TradingView --><svg width="56" height="56" fill="none" xmlns="http://www.w3.org/2000/svg"><path fill="#E40001" d="M0 0h56v56H0z"/><path fill-rule="evenodd" clip-rule="evenodd" d="M29 28h4v13s-3.46 2-8 2c-4.62 0-14-2.094-14-14.66C11 15.777 22.43 15 24.858 15c2.427 0 6.576.535 8.142 1 0 0-.374 3.07-1 4 0 0-3.007-1-7-1s-10 1-10 9.5S20.5 39 24.5 39c3.366 0 4.5-.5 4.5-.5V28Z" fill="#F0F3FA"/><path fill="#F0F3FA" d="M37 15h2v2h-2zM37 19h2v2h-2zM37 23h2v2h-2zM41 15h2v2h-2zM41 19h2v2h-2zM41 23h2v2h-2zM45 15h2v2h-2zM45 19h2v2h-2zM45 23h2v2h-2z"/></svg>