<!-- by TradingView --><svg width="56" height="56" fill="none" xmlns="http://www.w3.org/2000/svg"><path fill="#F0F3FA" d="M0 0h56v56H0z"/><path fill-rule="evenodd" clip-rule="evenodd" d="M28.311 15.612c4.113.737 8.984 3.13 9.608 7.514 1.083-1.676 2.03-3.875 2.079-5.882a5.44 5.44 0 0 0-.23-1.764c-.413-1.311-1.365-2.265-2.833-2.84a8.71 8.71 0 0 0-3.156-.638 5.726 5.726 0 0 0-3.31.944 5.662 5.662 0 0 0-2.158 2.666ZM25.675 27.01c.28-.21.597-.361.936-.448l.045-.328.01-.073.004-.02a55.538 55.538 0 0 0-2.956-.49 7.325 7.325 0 0 0-2.823 1.138c-2.39 1.66-2.344 4.176-1.854 6.041l.011-.006.005-.003.02-.01a15.024 15.024 0 0 1 4.51-1.446c.054-.545.319-1.049.739-1.404.015-1.323.446-2.264 1.353-2.951Zm1.39 3.575a2.584 2.584 0 0 1-.336-.628c-.199-.025-.4-.038-.6-.039a2.535 2.535 0 0 0-1.37.331c.006.34.03.68.077 1.018a8.429 8.429 0 0 0 2.23-.682Zm2.101.172c-.244.118-.51.182-.782.188a1.136 1.136 0 0 1-.725-.247l.047-.027.043-.024c.152-.093.297-.198.432-.313.336.124.665.265.985.423Zm-5.118.604c.013-.078.03-.155.054-.231.052-.18.135-.348.246-.499.016.21.041.439.075.695-.125.016-.25.027-.375.035Zm3.713-1.18a5.943 5.943 0 0 0-.593-.152c.06.137.134.267.224.386.133-.075.26-.152.377-.231l-.008-.002Zm-3.084 2.8a1.526 1.526 0 0 1-.329-.287 1.459 1.459 0 0 1-.331-.983c.142-.006.293-.016.455-.03.03.199.062.396.093.592.033.194.062.386.091.575l.02.134Zm.392-4.524a4.323 4.323 0 0 0-.287 1.24 2.8 2.8 0 0 1 1.06-.185c.259.002.516.024.77.066a7.734 7.734 0 0 1-.055-2.577 2.766 2.766 0 0 0-1.488 1.456Zm3.077-12.337c4.424.755 9.18 3.13 9.394 7.567-.262.366-.538.717-.817 1.039-2.125 2.468-5.113 5.507-6.077 6.48-.21-.134-.447-.273-.692-.405.146-.095.287-.197.422-.306.496-.403 1.587-1.445 1.013-2.434-.838-1.437-2.974-1.986-4.244-2.19.068-1.142.366-5.819.884-9.18.029-.192.068-.383.117-.571Zm7.257 19.156a232.957 232.957 0 0 0-4.67-3.56c-1.738 1.29-3.337 1.947-4.75 1.947-.092 0-.184-.003-.275-.01a2.51 2.51 0 0 1-.503-.082c.3 1.33.712 2.633 1.234 3.893 1.084.311 2.205.527 3.333.535 1.82-.001 4.264-.522 5.631-2.723ZM38 39.153a4.971 4.971 0 0 1-.3 1.539c-.549 1.526-2.257 3.31-4.636 3.308a5.407 5.407 0 0 1-2.4-.602c-1.282-.634-2.862-2.79-4.053-5.524 1.064.287 2.162.436 3.265.443 1.89 0 4.431-.483 5.886-2.759.23.183.455.363.668.537.914.741 1.604 1.843 1.57 3.058ZM15.354 34c1.142-.023 2.266-.502 3.3-.985-.465-1.669-.822-4.63 1.729-6.4.69-.479 1.45-.85 2.252-1.1a17.86 17.86 0 0 1-1.329-.23c-.697-.14-1.395-.279-2.095-.285-2.93-.035-6.439 1.59-7.116 4.796-.472 2.236.923 4.204 3.258 4.204Zm10.42-.728a2.315 2.315 0 0 1-.643-.085c-.04-.291-.09-.586-.137-.87l-.004-.027-.018-.11c-.03-.181-.06-.363-.087-.545a7.991 7.991 0 0 0 2.44-.757 1.544 1.544 0 0 0 1.11.45 2.58 2.58 0 0 0 1.181-.33c.271.15.518.296.748.444a9.768 9.768 0 0 1-3.392 1.65c-.39.11-.793.17-1.198.18Zm3.293-5.201a1.097 1.097 0 0 0-.321-.813 1.794 1.794 0 0 0-1.267-.446c-.153-.001-.305.013-.455.043-.16.93-.152 1.881.021 2.809.345.08.685.18 1.02.298a2.438 2.438 0 0 0 1.002-1.891Zm-1.955-1.833c1.251.197 2.885.671 3.798 1.812.414.518.17 1.197-.726 2.021-.205.19-.43.36-.671.505-.36-.177-.72-.338-1.073-.474.57-.557 1.125-1.37 1.09-2.124a1.292 1.292 0 0 0-.555-1.011 2.65 2.65 0 0 0-1.594-.51c-.102 0-.204.005-.305.015l.036-.234Z" fill="url(#a)"/><defs><linearGradient id="a" x1="40" y1="22.5" x2="17.349" y2="32.306" gradientUnits="userSpaceOnUse"><stop stop-color="#1F6A96"/><stop offset=".631" stop-color="#71B3E5"/></linearGradient></defs></svg>