<!-- by TradingView --><svg width="56" height="56" fill="none" xmlns="http://www.w3.org/2000/svg"><path fill="url(#a)" d="M0 0h56v56H0z"/><path d="M4 32h3v-.145H6v-7.681h1V24H4v.174h1v7.681H4V32ZM14 29h-3.045v.138H12v.841c0 1.274-.654 1.855-1.487 1.855-.677 0-1.04-.139-1.457-.526C8.353 30.616 8 29.315 8 28.014c0-1.91.51-3.876 2.513-3.876 1.665 0 2.279 1.115 2.383 1.862H13v-1.806h-.156c-.104.138-.182.221-.442.221-.495 0-.848-.415-1.889-.415-.989 0-1.743.443-2.368 1.08C7.807 25.467 7 26.38 7 28.042c0 1.217.494 2.186 1.171 2.906.677.72 1.38 1.052 2.316 1.052 1.275 0 1.498-.664 1.993-.664.208 0 .26.055.39.193H13v-2.363h1V29ZM49 32h3v-.145h-1v-7.681h1V24h-3v.174h1v7.681h-1V32ZM14 24.145h1v5.208c0 1.793.947 2.647 2.5 2.647 1.026 0 1.632-.341 1.974-.882.368-.54.526-1.025.526-1.622v-5.35h1v-.143h-2v.142h.842v5.123c0 1.053-.237 1.366-.5 1.764-.395.598-.974.826-1.684.826-1.053 0-1.658-.626-1.658-2.39v-5.323h1v-.142h-3v.142ZM20 32h2v-.142h-1L22 29h2.154l1 2.858H24V32h3v-.142h-.846L23.59 24h-.308l-2.436 7.858H20V32Zm4.103-3.199H22.05L23 25.418l1.103 3.383ZM31.34 32v-.145H30v-7.681h.737c.604 0 1.6 0 2.142 1.826H33v-2h-7v2h.12c.544-1.855 1.51-1.826 2.143-1.826H29v7.681h-1.34V32h3.68ZM33 32h6v-2h-.103c-.078.696-.518 1.826-1.966 1.826H35V28h.63c.93 0 1.111 1.13 1.267 2H37v-4h-.103c-.285 1.333-.57 1.855-1.449 1.855H35v-3.71h1.698c1.087 0 1.862.667 2.199 1.855H39v-2h-6v.145h1v7.681h-1V32ZM40 32h2v-.174h-.846V24.29h.025L43.59 32l2.385-7.768H46v7.594h-1V32h3v-.174h-1v-7.681h1V24h-2.103l-1.871 6H44l-1.795-6H40v.145h1v7.681h-1V32Z" fill="#F0F3FA"/><defs><linearGradient id="a" x1="28" y1="0" x2="28" y2="56" gradientUnits="userSpaceOnUse"><stop stop-color="#181B1E"/><stop offset="1" stop-color="#181B1E"/></linearGradient></defs></svg>