<!-- by TradingView --><svg width="56" height="56" fill="none" xmlns="http://www.w3.org/2000/svg"><path fill="#00A74B" d="M0 0h56v56H0z"/><path fill-rule="evenodd" clip-rule="evenodd" d="M5.752 24a.77.77 0 0 1 .752.752.77.77 0 0 1-.752.752.77.77 0 0 1-.752-.752c0-.401.3-.752.752-.752ZM5 26.222 6.5 26v6H5v-5.778ZM8 32h1.5v-3.5c0-.654.412-1.2 1-1.2.588 0 1 .546 1 1.2V32H13v-3.5c0-1.527-1.127-2.5-2.5-2.5S8 26.973 8 28.5V32ZM14 24.276 15.5 24v2H17v1.5h-1.5v1.927s-.105 1.251 1.5 1.073c0 0 .632.829 1 1.052 0 0-.263.448-1.368.448C15 32 14 30.993 14 29.65v-5.374ZM25 32h1.5v-8l-1.5.338V32ZM24.018 29.596l-1.113-.295C21.416 31.25 20 30 20 30l3.832-2.184A3.024 3.024 0 0 0 21.04 26C19.38 26 18 27.364 18 29s1.326 3 3.039 3c1.456 0 2.7-1.011 2.98-2.404ZM22.2 27.447 19.5 29c-.09-.593.657-2.365 2.7-1.553ZM29.5 26.424V24l-1.5.343V29.007C28 30.64 29.363 32 31 32c1.636 0 3-1.36 3-2.993 0-1.633-1.364-2.993-3-2.993-.544 0-1.057.15-1.5.41Zm1.5 1.1c-.818 0-1.5.64-1.5 1.51 0 .871.641 1.511 1.514 1.511.818 0 1.486-.64 1.486-1.51-.054-.817-.682-1.51-1.5-1.51ZM36.5 32v-3.49s.29-1.5 1.5-1.01l1-1s-.526-.5-1.474-.5C36.58 26 35 26.927 35 28.4V32h1.5ZM42 26c-1.636 0-3 1.364-3 3s1.364 3 3 3c.543 0 1.057-.15 1.5-.411V32H45v-3c0-1.636-1.31-3-3-3Zm1.5 3c0-.818-.682-1.5-1.5-1.5s-1.5.627-1.5 1.5.627 1.5 1.5 1.5c.816 0 1.496-.624 1.5-1.493V29ZM51 26l-.278 1.5H47.89c-.445 0-.556.812 0 .812h1.333S51 28.422 51 30.018C51 31.615 49.833 32 49.611 32H46l.278-1.5H49c.444 0 .611-.867 0-.867h-1.111S46 29.633 46 27.927C46 26.22 47.556 26 47.722 26H51Z" fill="#F0F3FA"/></svg>