<!-- by TradingView --><svg width="56" height="56" xmlns="http://www.w3.org/2000/svg"><path fill="#025B6B" d="M0 0h56v56H0z"/><path d="M49.808 19.998H18.896l-7.64 16h30.911l7.641-16z" fill="#fff"/><path d="M52 19.998h-2.186l-7.64 16h2.185l7.64-16z" fill="#F6B009"/><path d="M20.015 32v-4H21v.533c.55-.58 1.35-.573 1.597-.497l-.146 1.087c-.726-.334-1.451.238-1.451.556V32h-.985z" fill="#025B6B"/><path fill="#fff" d="M4 27h1v5H4z"/><path fill="#025B6B" d="M32 27h1v5h-1zm-2 .998h1V32h-1zM30 27h1v.791h-1z"/><path fill-rule="evenodd" d="M6 27v4.996h1V30h.83l1.02 1.996h1.148l-1.149-2.11c.296-.15.614-.414.648-1.272C9.53 27.757 8.952 27 8.102 27H6zm1.01 1v1.002h.873c.167-.018.5-.15.493-.529C8.37 28.095 8.015 28 7.84 28h-.83z" fill="#fff"/><path fill-rule="evenodd" d="M35 27v4.996h1V30h.831l1.018 1.996H39l-1.15-2.11c.296-.15.614-.414.648-1.272.034-.857-.545-1.614-1.395-1.614H35zm1.01 1v1.002h.873c.167-.018.5-.15.493-.529-.007-.378-.361-.473-.537-.473h-.828zm-13.136.586c.193-.202.771-.601 1.544-.585.967.02 1.573.704 1.582 1.34.008.508.003 2.027 0 2.659h-1v-.455c-.145.156-.593.465-1.055.457-.578-.01-1.27-.348-1.25-1.202.018-.853.846-1.499 2.305-1.29.019-.179-.142-.473-.664-.513-.523-.04-.9.195-1.023.318l-.439-.729zm2.09 1.629c-.4-.063-1.392-.05-1.392.537 0 .501.742.535 1.148.232.106-.079.389-.364.245-.77z" fill="#025B6B"/><path d="M28.265 28c.733 0 1.24.342 1.401.513l-.503.772c-.44-.233-.641-.266-.898-.285-.256-.019-.442.046-.45.242-.008.156.182.246.295.28l.943.25c.303.07.723.471.686 1.016-.045.68-.695 1.23-1.63 1.212-.747-.015-1.355-.398-1.565-.588l.522-.77c.557.41 1.068.407 1.254.354.142-.04.243-.058.287-.208.044-.15-.14-.262-.287-.308l-.915-.298c-.257-.11-.77-.463-.77-1.007 0-.68.715-1.175 1.63-1.175zM39 32v-5h3.5v1H40v1h2v1h-2v1h2.5v1H39z" fill="#025B6B"/><path fill-rule="evenodd" d="M10.413 31.996V27h2.015c.724 0 1.3.458 1.33 1.236.024.622-.427 1.026-.655 1.15.357.15.813.377.813 1.374 0 .997-.906 1.24-1.36 1.236h-2.143zM11.414 29v-1h.802c.17 0 .513.094.52.472.006.378-.316.51-.478.528h-.844zm0 1.003v1h.926c.177-.019.53-.15.523-.528-.008-.378-.383-.472-.57-.472h-.879z" fill="#fff"/><path fill-rule="evenodd" d="M16 31.996V27h2.015c.724 0 1.3.458 1.33 1.236.023.622-.427 1.026-.656 1.15.358.15.814.377.814 1.374 0 .997-.906 1.24-1.36 1.236H16zM17.001 29v-1h.801c.17 0 .514.094.52.472.007.378-.315.51-.477.528H17zm0 1.003v1h.925c.178-.019.531-.15.524-.528-.008-.378-.383-.472-.57-.472H17z" fill="#025B6B"/></svg>