<!-- by TradingView --><svg width="56" height="56" fill="none" xmlns="http://www.w3.org/2000/svg"><path fill="#F0F3FA" d="M0 0h56v56H0z"/><path fill-rule="evenodd" clip-rule="evenodd" d="M15.209 12H40.79C42.526 12 44 13.474 44 15.209V35H12V15.209C12 13.474 13.474 12 15.209 12Z" fill="#22409A"/><path d="M44 41.008V38H12v3.008C12 42.625 13.474 44 15.209 44H40.79C42.526 44 44 42.625 44 41.008Z" fill="#F58220"/><path fill-rule="evenodd" clip-rule="evenodd" d="M15.146 14s11.251 4.67 9.709 16c0 0-1.452-2.681-4.628-3.719-3.175-1.038-5.897-8.994-5.08-12.281Z" fill="#F0F3FA"/><path fill-rule="evenodd" clip-rule="evenodd" d="M41 16s-15.59 7.368-13.238 26c0 0-8.883-19.902 13.238-26Z" fill="#F0F3FA"/></svg>