<!-- by TradingView --><svg width="56" height="56" fill="none" xmlns="http://www.w3.org/2000/svg"><path fill="#1C2F4D" d="M0 0h56v56H0z"/><path d="M5 28.318c0 .182-.004.557.012.835C5.143 30.915 7.5 30 7.51 33c.256-.441.489-.742.49-1.288.004-1.891-2.664-1.847-3-3.394Z" fill="#A8934A"/><path d="M6 26.747V26c-.377.407-.578.643-.579 1.194 0 2.007 2.384 2.215 3.1 3.745.152.335.238.695.253 1.061.15-.382.224-.732.226-1.061.01-1.952-2.805-2.363-3-4.192Z" fill="#A8934A"/><path d="M9 25.646h1V26H9v-.354ZM11.09 27H9.5v-.354h1.726S12 26.406 12 25H8v.5c-.184-.092-.316-.376-.349-1.204L6.683 25c-.1.58-.171 1.882 1.163 3 .495.355.987.598 1.27 1.13.284.532.438 1.121.452 1.721.244-.134.453-.321.612-.547.158-.226.262-.484.303-.754.039-.23.022-.467-.049-.69-.105-.333-.173-.641-.434-.86 1.14.184 1 .5 1 1 .329-.436 1-.903 1-1.5 0-.563-.91-.5-.91-.5Z" fill="#A8934A"/><path d="M18 31.5v-6.079c0-.237-.208-.421-.44-.421h-1.108c-.033 0-.062.028-.062.06 0 .03.03.058.062.058.29-.002.55.23.548.526v5.92c-.008.245.205.438.443.436h3.452l.105-.497-3-.003ZM25.335 28.621 26 25.657l.665 2.964h-1.33ZM29 31.91a.079.079 0 0 0-.07-.06c-.292-.008-.5-.227-.58-.52l-1.416-5.91a.563.563 0 0 0-.499-.42h-.598l-1.662 7h.332l.752-3h1.509l.665 2.58c.06.232.269.408.498.42h1.022c.03.002.052-.031.044-.06M32.003 25.06c.01.03.038.055.07.059.29.01.519.231.596.525l1.412 5.935c.061.233.27.41.5.421h.598L37 25h-.331L35 31.338l-1.405-5.916a.565.565 0 0 0-.5-.422h-1.052c-.028-.001-.052.031-.043.06M40.005 25.06c.01.03.038.055.07.059.29.01.518.231.596.525l1.412 5.935c.06.233.27.41.5.421h.598L45 25h-.33L43 31.338l-1.405-5.916a.565.565 0 0 0-.5-.422h-1.051c-.028-.001-.052.031-.043.06M49 31.415c0 .242.039.582.358.585h1.09c.027 0 .05-.028.05-.06 0-.03-.023-.058-.05-.058-.24 0-.451-.247-.451-.526v-5.938c0-.222-.168-.418-.358-.418h-1.09c-.026 0-.049.026-.05.056 0 .249.499.23.501.584v5.775Z" fill="#F0F3FA"/></svg>