<!-- by TradingView --><svg xmlns="http://www.w3.org/2000/svg" width="56" height="56"><path fill="#F0F3FA" d="M0 0h56v56H0z"/><path d="M7 21.38L10 20v14H7V21.38z" fill="#1559A0"/><path fill-rule="evenodd" d="M16.5 34a5.5 5.5 0 100-11 5.5 5.5 0 000 11zm.02-2c1.39 0 2.51-1.57 2.51-3.5S17.91 25 16.52 25c-1.4 0-2.52 1.57-2.52 3.5s1.13 3.5 2.52 3.5z" fill="#1559A0"/><path d="M34 23h-3v.6a5.5 5.5 0 10-.3 9.95c-.62 1.3-1.98 1.85-2.68 2.04l.93 2.41c2.79-.4 4.35-2.88 4.71-5H32v-3h2v-7zm-3 5.5c0 1.93-1.12 3.5-2.5 3.5S26 30.43 26 28.5s1.12-3.5 2.5-3.5 2.5 1.57 2.5 3.5z" fill="#1559A0"/><path d="M38 23h-3v7h2v3h1V23zm4 .96a4.58 4.58 0 012.53-.96c1.66 0 3.26.78 3.47 3.03V33h-3V26.93c-.01-.6-.04-1.8-1.49-1.93-.36-.02-.95.22-1.51.87V33h-3V23h3v.96z" fill="#7CA93C"/><path fill="#1559A0" d="M49 30h3v3h-3z"/></svg>