<!-- by TradingView --><svg xmlns="http://www.w3.org/2000/svg" width="56" height="56"><path fill="#2A343D" d="M0 0h56v56H0z"/><path d="M4 31.73c0 .21.06.27.27.27h1.46c.22 0 .27-.04.27-.26v-9.5c0-.18-.06-.24-.24-.24H4.29c-.26 0-.29.04-.29.29v9.44z" fill="#fff"/><path d="M48 25.03l.81-.03c.47-.01 1.1 0 1.43.05 1.5.28 1.72 1.78 1.75 3.06.02.75.02 1.22-.11 1.97-.3 1.58-1.66 1.98-3.07 1.91-.86-.03-1.71-.1-2.56-.23-.16-.02-.22-.1-.24-.27l-.01-.16v-9.09c.01-.2.04-.24.25-.24h1.48c.23 0 .26.03.26.28v2.75zm0 5.2c.55.07.81.11 1.25.05.5-.08.7-.54.74-1 .02-.57.02-.77.02-1.34 0-.59-.22-1.22-.9-1.25-.5-.03-.62-.02-1.11-.03.02 0-.01 0 0 0v3.57z" fill="#F00843"/><path d="M24.5 27.78v-.45c-.05-.34-.2-.55-.58-.6a4.45 4.45 0 00-.54-.04h-2.05c-.29 0-.3 0-.3-.28v-1.02c0-.12.05-.19.18-.2 1.05-.2 2.09-.23 3.14-.15.44.04.86.13 1.26.32.5.25.77.68.85 1.21.03.2.04.42.04.63v4.11c-.01.31-.1.4-.4.46a15.22 15.22 0 01-4.22.12c-.7-.13-1.16-.53-1.3-1.24-.1-.55-.12-1.19.04-1.73.17-.56.58-.88 1.15-1 .35-.07.71-.1 1.07-.13.55-.02 1.1 0 1.66 0zm0 1.37c-.58 0-.86-.02-1.44 0-.34.02-.51.2-.56.53-.02.13 0 .17.01.3.04.25.2.4.45.46.19.03.37.05.56.05.43.01.56-.02.98-.11v-1.23zm-7.47-2.45c-.62.03-.95.42-1 1-.06.61-.06.96 0 1.56.05.58.4 1 1.01 1l2.05.05h.13c.21 0 .26.05.27.26l.01.96c0 .2-.07.27-.27.31-.86.16-1.74.18-2.62.15a3.81 3.81 0 01-1.53-.32c-.39-.19-.65-.5-.82-.88-.2-.48-.26-.98-.26-1.49 0-.71.01-1.44.05-2.16.02-.39.12-.77.31-1.12.21-.38.53-.64.94-.78.42-.15.84-.2 1.28-.22.74-.04 1.48-.03 2.21.07l.5.07c.12.02.2.1.2.22l-.01 1.14c0 .13-.07.19-.2.19h-2.25z" fill="#fff"/><path d="M41 29.25c.04.26.04.35.1.57.08.36.35.38.7.42.22.02.26.04.49.04h1.95c.23 0 .27.04.27.28v1.02c0 .19-.05.23-.23.26-.94.17-1.89.18-2.83.14-.41-.01-.83-.07-1.21-.23-.6-.23-.92-.7-1.07-1.3a5.13 5.13 0 01-.17-1.32c0-.64.01-1.28.05-1.91.02-.37.12-.74.26-1.07.25-.56.7-.87 1.27-1a6.83 6.83 0 013.2.11c.57.21.87.66 1.03 1.22.13.49.16 1 .19 1.49v.99c0 .2-.08.27-.28.3H41zm2-1.4c-.03-.26-.04-.3-.1-.55a.66.66 0 00-.46-.52 1.65 1.65 0 00-.87 0 .65.65 0 00-.37.28c-.2.3-.2.44-.2.79h2z" fill="#F00843"/><path d="M13 28.12a7.27 7.27 0 00-.17-1.6c-.15-.57-.46-1.03-1-1.27-.3-.14-.64-.2-.97-.22-.46-.03-.93-.04-1.38-.03-.42.01-.82.07-1.21.22-.4.14-.7.4-.9.8-.23.44-.3.93-.34 1.43-.03.57-.04 1.14-.02 1.7.01.41.07.8.14 1.2.06.37.21.72.47 1a2 2 0 001.2.57c.57.1 1.15.1 1.74.06.4-.02.8-.07 1.17-.21.3-.12.55-.3.74-.56.22-.3.32-.62.39-.97.1-.49.12-.98.12-1.5l.02-.62zm-2 .63c0 .55 0 1.3-.62 1.41-.3.06-.55.07-.85 0-.3-.06-.53-.35-.53-.7v-1.52c.04-.61.16-1.01.62-1.13.29-.07.58-.02.76 0 .68.1.62 1.25.62 1.94zm18.49-3.54c-.04-.15-.07-.21-.19-.21h-1.72l-.02.01-.02.01v.01l-.02.01v.02l-.02.03v.04l.01.06.02.1c.1.3.54 1.9.96 3.36l.02.02.75 2.61c.13.38.4.72.81.72l.68-2.4c-.56-1.87-1.22-4.2-1.26-4.39zm4.51-.07c0-.04-.08-.11-.1-.14.07.04.06.2.04.26l-.95 3.34.01.03.01.03.75 2.62c.13.38.42.72.84.72l.34-1.26c.08-.29.18-.6.26-.94l.06-.2-1.27-4.46z" fill="#fff"/><path d="M38.49 25.1v-.01l-.01-.03-.01-.02h-.01l-.02-.02c-.02 0-.02-.02-.03-.02h-1.72c-.12.01-.16.07-.19.21-.04.19-.7 2.53-1.25 4.42l-.05.2-.27.95L34.6 32h1.34c.42 0 .7-.31.81-.69.04-.1.39-1.31.75-2.61l.02-.02.96-3.37.02-.1.01-.06-.01-.04zm-4.61-.1h-1.7c-.13.01-.16.07-.2.21-.04.19-.7 2.53-1.24 4.41L30.06 32h1.36c.42 0 .69-.31.82-.69l.75-2.61.01-.02.96-3.37c.03-.09.06-.31-.08-.31z" fill="#F00843"/></svg>