<!-- by TradingView --><svg width="56" height="56" fill="none" xmlns="http://www.w3.org/2000/svg"><path fill="#F0F3FA" d="M0 0h56v56H0z"/><path fill-rule="evenodd" clip-rule="evenodd" d="M7 32v-3H4v-3h3v-3h3v3h3v3h-3v3H7Zm1-1h1v-3h3v-1H9v-3H8v3H5v1h3v3Z" fill="#1D582A"/><path d="M20 31h1l-.5-6H19a49.74 49.74 0 0 0-1.5 4.5c-.421-1.524-.96-3.005-1.474-4.5H14.5l-.5 6h1c.127-1.668.382-3.326.382-5 .42 1.71 1.015 3.349 1.618 5h1c.553-1.672 1.101-3.347 1.71-5 0 1.666.29 3.32.29 5ZM26 28c0-1-.455-2-2-2-.727 0-1.364.182-1.727.454l.272.91c.364-.182.819-.364 1.273-.364.818 0 1.182.454 1.182.727-1.727 0-3 .637-3 1.819 0 .727.545 1.454 1.727 1.454.637 0 1-.273 1.273-.636l.09.636H26v-3Zm-1 1.454c-.09.364-.546.546-1 .546-.273 0-.818-.09-.818-.636 0-.728 1-.91 1.818-.91v1ZM28 25.182V26h-1v1h1v2.273c0 .921.135 1.727 1.177 1.727.352 0 .646-.09.823-.09V30c-.177 0-.323.09-.5.09-.441 0-.5-.272-.5-.908V27h1v-1h-1v-1l-1 .182ZM35 29v-.727C35 27.182 34.47 26 33 26c-1.388 0-2 1.273-2 2.546C31 30 31.816 31 33.204 31c.653 0 1.143-.182 1.47-.273l-.164-.909c-.326.182-.653.182-1.224.182-.653 0-1.286-.09-1.286-1h3Zm-3-1c.082-.454.347-1 1-1 .735 0 1.02.546 1.02 1H32ZM50 29v-.727C50 27.182 49.47 26 48 26c-1.388 0-2 1.273-2 2.546C46 30 46.816 31 48.204 31c.653 0 1.143-.182 1.47-.273l-.164-.909c-.326.182-.653.182-1.224.182-.653 0-1.286-.09-1.286-1h3Zm-3-1c.082-.454.347-1 1-1 .735 0 1.02.546 1.02 1H47ZM36 31h1v-2.924c.103-.567.362-.944 1.086-.944h.414V26h-.31c-.621 0-.983.34-1.19 1v-1h-1v5ZM40 30.919c.323.081.806.081 1.452.081C43.476 31 45 29.986 45 27.838 45 25.824 43.53 25 41.694 25c-.646 0-1.21.081-1.694.162v5.757ZM41 26h.882c1.371 0 2.118.622 2.118 1.919C44 29.379 42.935 30 41.565 30H41v-4ZM52 27v4h-1v-4h1Z" fill="#1D582A"/><circle cx="51.5" cy="25.5" r=".5" fill="#1D582A"/></svg>