<!-- by TradingView --><svg width="56" height="56" viewBox="0 0 56 56" xmlns="http://www.w3.org/2000/svg"><path fill="#F9E6B3" d="M0 0h56v56H0z"/><path d="M17.26 30.49c.94-.23 1.72-.48 2.37-.75l.04-.02a6.52 6.52 0 0 1 4.2-4.89 6.17 6.17 0 0 0-3-6.88 8.18 8.18 0 0 0-5.73-.8c-5.12 1.02-7.46 6.17-5.39 12.46 1.58 4.8 5.32 8.13 7.03 7.26.89-.44.29-1.42-.36-2.49-.93-1.51-1.97-3.22.85-3.9v.01Zm13.77-.08c.14-1.92.83-5.52 2.13-6.59.79-.63 3.2.25 3.57.96.3.55-.06 1.41-.38 2.17-.25.6-.47 1.14-.31 1.39.16.27.56.27.95.28.5 0 1 .01 1 .57.07 1.57-1.09 1.72-2.18 1.65-.44-.03-.59.41-.6.96-.06 1.54.36 2.78 1.92 3.6 1.1.58.14 2.13-2.53 1.47-3.1-.75-3.75-4.07-3.57-6.46Zm15.94-2.24c-.43-1.96-5.7-3.49-7.07-3.38l-.01.01c-1.87.16-3.1 4.02-.02 4.11h.41c.94.03 1.73.04 1.94.41.27.45-.5 1.12-1.44 1.94-1.2 1.04-2.66 2.32-2.6 3.67.1 1.79 2.2 2.02 4.21 2.07 3.88.09 5.14-2.45 3.56-2.43-.2 0-.44.02-.67.05-.76.07-1.54.15-1.75-.41-.2-.55.6-1.46 1.47-2.48 1.04-1.2 2.2-2.54 1.97-3.56Zm-19.57 5.1a8.08 8.08 0 0 1-1.71-.08l-.01.01c-.44-.07-.45.47.18.99.34.28 1.18.75 2.68.47l.22-.04c.48-.1.77-.17.98.13.15.22.21.71-.21 1.2-.27.3-.94.85-2.34 1.03a6.82 6.82 0 0 1-4.14-.83 5.85 5.85 0 0 1-2.89-4.57c-.26-2.01.7-4.03 2.48-5.41a6.09 6.09 0 0 1 5.65-.71 4.77 4.77 0 0 1 2.38 2.03c-.27 1.35-.42 2.87-.27 4.29a3.88 3.88 0 0 1-3 1.49Z" fill="#175EA8"/></svg>