<!-- by TradingView --><svg width="56" height="56" fill="none" xmlns="http://www.w3.org/2000/svg"><path fill="#F0F3FA" d="M0 0h56v56H0z"/><path d="M44.446 19C41.982 19 40 20.988 40 23.476v4.516L38 28v9h4.616C45.093 37 47 34.965 47 32.468v-4.476L49 28v-9h-4.554Z" fill="#00BEDD"/><path d="M33.469 19C31.055 19 29 21.035 29 23.476v4.516h-2V19h-4.469c-2.5 0-4.448 1.988-4.531 4.476V28h-2v-9h-4.446C9.12 19 7 21.012 7 23.476V28h5v9h4.403C18.875 37 21 34.975 21 32.468v-4.476h2V37h4.5c2.438 0 4.5-2.039 4.5-4.5V28h6v-9h-4.531Z" fill="#001C43"/></svg>