<!-- by TradingView --><svg xmlns="http://www.w3.org/2000/svg" width="56" height="56"><path fill="url(#a0zsynn1j)" d="M0 0h56v56H0z"/><path fill-rule="evenodd" d="M51 23H5v10h46V23zM4 22v12h48V22H4z" fill="#fff"/><path fill-rule="evenodd" d="M6 24h44v8H6v-8zm1.04 1h3.85a1.9 1.9 0 011.62 1.93 2.06 2.06 0 01-1.38 1.9L12.88 31h-2l-2.3-2.8V31H7.04v-6zm1.53 1h1.77c.24 0 .65.3.66.84.01.56-.36.87-.66.87H8.57V26zm7.57-1l-2.43 6h1.75l.45-1h2.1l.49 1h1.8l-2.5-6h-1.66zm.82 1.76L16.24 29h1.52l-.8-2.24zM21.24 31v-6h2.21l2.29 3.83V25h1.5v6h-2.3l-2.13-3.76V31h-1.57zm21.79-6v6h1.57v-3.76L46.72 31h2.3v-6h-1.5v3.83L45.23 25h-2.2zM28.8 25h2.57c1.08-.02 3.18.53 3.18 2.86 0 1.27-.37 3.13-3.18 3.14H28.8v-6zm1.5 1h1.17c.5-.01 1.45.35 1.45 1.91 0 .84-.17 2.08-1.45 2.09h-1.16v-4zm5.36 1.5a2.5 2.5 0 012.5-2.5h.96a2.5 2.5 0 012.5 2.5v1a2.5 2.5 0 01-2.5 2.5h-.96a2.5 2.5 0 01-2.5-2.5v-1zm1.75-.27a1.23 1.23 0 012.46 0v1.54a1.23 1.23 0 11-2.45 0v-1.54z" fill="#fff"/><defs><linearGradient id="a0zsynn1j" x1="10.42" y1="9.71" x2="68.15" y2="76.02" gradientUnits="userSpaceOnUse"><stop stop-color="#1A1E21"/><stop offset="1" stop-color="#06060A"/></linearGradient></defs></svg>