<!-- by TradingView --><svg xmlns="http://www.w3.org/2000/svg" width="56" height="56" viewBox="0 0 56 56"><path fill="#F0F3FA" d="M0 0h56v56H0z"/><path fill-rule="evenodd" d="M32.01 32.14C31 34 28.73 35 26.21 35c-3.2 0-5.48-1.06-7.21-2.83l3.1-3.2a5.36 5.36 0 0 0 3.67 1.7c1.17 0 1.79-.52 1.79-1.25v-.04c0-.76-.66-1.38-2.05-1.38h-2.2l-.7-2.2 3.44-2.8H20v-4h19.52c2.72 0 4.45.7 5.53 1.83a5.15 5.15 0 0 1 1.41 3.8v.04a5.19 5.19 0 0 1-3.03 4.9L47 35h-5.86l-2.9-5H37v5h-4.99v-2.86Zm0-4.74c-.64-1.07-1.79-1.76-3.26-2.15L32 22.8v4.6ZM37 23v3h2.16c1.23 0 1.84-.4 1.84-1.37v-.05c0-1.02-.62-1.58-1.81-1.58H37Z" fill="#215B4A"/><path d="M20.55 36.48v1.04h.63c.41 0 .66-.18.66-.5 0-.36-.25-.54-.66-.54h-.63ZM20.53 39H20v-3h1.21c.72 0 1.17.4 1.17 1v.01c0 .67-.56.99-1.24.99h-.6v1ZM25 39h-2v-3h2v.47h-1.52v.78h1.34v.47h-1.34v.81H25V39Zm10.45 0h2.15v-.48H36V36h-.55v3ZM44 39h.56v-2.15l.94 1.41h.01l.96-1.41V39H47v-3h-.57l-.93 1.42-.93-1.42H44v3Zm-.67-1.32c0 .87-.53 1.32-1.33 1.32s-1.3-.45-1.3-1.28V36h.54v1.69c0 .54.3.84.78.84.48 0 .77-.29.77-.83V36h.54v1.68ZM38 39h2v-.47h-1.52v-.81h1.34v-.47h-1.34v-.78H40V36h-2v3Zm-4.94-.46c-.6 0-1.04-.47-1.04-1.03v-.02a1 1 0 0 1 1.04-1.01c.6 0 1.05.46 1.05 1.03v.01c0 .55-.44 1.02-1.05 1.02Zm-.01.46c.94 0 1.62-.69 1.62-1.5 0-.83-.66-1.5-1.6-1.5-.95 0-1.63.69-1.63 1.5 0 .83.67 1.5 1.6 1.5ZM29 36.5v1h.81c.38 0 .64-.2.64-.5v-.01c0-.32-.24-.5-.64-.5H29Zm0 2.5h-.51v-3h1.38c.38 0 .69.11.88.3.16.17.26.38.26.65 0 .5-.31.79-.73.91L31.1 39h-.65l-.76-1.04H29V39Zm-2.52 0h.54v-2.5H28V36h-2.51v.5h.97V39h.02Z" fill="#215B4A"/><path d="M14.17 30.4c.95-1.36 2.49-.73 2.85.98.51 2.45 2.98 2.78 2.98 2.78s-1.79 1.62-4.43.37c-1.74-.83-2.06-3.2-1.4-4.13Z" fill="#068CA0"/><path d="M17.98 21.6c-.96 1.35-2.5.72-2.86-.98-.51-2.45-2.98-2.78-2.98-2.78s1.79-1.6 4.44-.37c1.73.82 2.05 3.2 1.4 4.12ZM14.28 21.55c.29 1.64-1.25 2.27-2.72 1.3-2.1-1.35-4.09.14-4.09.14s.13-2.4 2.88-3.38c1.82-.63 3.73.83 3.93 1.94Z" fill="#A1D64A"/><path d="M11.63 24.1c1.37.96.73 2.48-.98 2.84-2.47.5-2.8 2.95-2.8 2.95s-1.63-1.77-.38-4.4c.83-1.71 3.23-2.03 4.16-1.38Z" fill="#4CC084"/><path d="M11.59 27.76c1.65-.29 2.28 1.24 1.31 2.7-1.37 2.09.14 4.05.14 4.05s-2.42-.1-3.4-2.84c-.64-1.8.83-3.7 1.95-3.9Z" fill="#068CA0"/></svg>