<!-- by TradingView --><svg width="56" height="56" fill="none" xmlns="http://www.w3.org/2000/svg"><path fill="#F0F3FA" d="M0 0h56v56H0z"/><path fill-rule="evenodd" clip-rule="evenodd" d="M39 24s-3.254-3-11.634-3S15 24.555 15 26.347c0 1.792 2.071 3.873 5 4.653 0 0-4-2.139-4-4.075C16 24.988 20.152 22 29.481 22 35.53 21.971 39 24 39 24Z" fill="#22458C"/><path fill-rule="evenodd" clip-rule="evenodd" d="M4 32s2.254 3 10.634 3S27 31.445 27 29.653c0-1.792-2.071-3.873-5-4.653 0 0 4 2.36 4 4.296C26 31.232 21.865 34 12.536 34 6.461 34.029 4 32 4 32Z" fill="url(#a)"/><path fill-rule="evenodd" clip-rule="evenodd" d="M32 29h.954l1.06-2.85.98 2.85H36l-1.536-4h-.901L32 29ZM32 34h.954l1.06-2.85.98 2.85H36l-1.536-4h-.901L32 34ZM41 27c0-1.108-.892-2-2-2s-2 .892-2 2 .892 2 2 2 2-.892 2-2Zm-.747 0c0-.696-.557-1.253-1.253-1.253-.696 0-1.253.557-1.253 1.253 0 .696.557 1.253 1.253 1.253.696 0 1.253-.557 1.253-1.253ZM48 32c0-1.108-.892-2-2-2s-2 .892-2 2 .892 2 2 2 2-.892 2-2Zm-.747 0c0-.696-.557-1.253-1.253-1.253-.696 0-1.253.557-1.253 1.253 0 .696.557 1.253 1.253 1.253.696 0 1.253-.557 1.253-1.253ZM30.037 30H31v.784h-.963c-.688 0-1.239.54-1.239 1.216 0 .676.55 1.216 1.239 1.216H31V34h-.963C28.908 34 28 33.108 28 32s.908-2 2.037-2ZM41 30h.82v3.19H43V34h-2v-4ZM37.676 30c.351 0 1.71 0 1.71 1.06 0 1.196-.77 1.223-.77 1.223L40 33.995h-1l-1.226-1.549v1.55H37V30h.676Zm.098 1.875s.899.055.899-.679c0-.734-.899-.598-.899-.598v1.277ZM33.008 24.662h.374s0-.288.173-.288c.201 0 .316.317.604.317s.576-.374.576-.576h-.374s-.03.202-.288.144c-.26-.058-.288-.259-.576-.259s-.547.317-.489.662ZM30.4 26l.429-.541S30.286 25 29.57 25c-.742 0-1.4.51-1.4 1.121 0 .612.6.917 1.229 1.121.629.178.6.473.6.637 0 .121-.143.484-.6.484-.457 0-.914-.611-.914-.611l-.486.484s.555.764 1.429.764c.714 0 1.571-.433 1.571-1.198 0-.764-.429-1.171-1.2-1.35-.413-.082-.596-.273-.6-.452-.002-.156.132-.304.371-.363.486-.102.829.363.829.363ZM51.4 30.943l.429-.484S51.286 30 50.57 30c-.742 0-1.4.51-1.4 1.121 0 .612.6.917 1.229 1.121.629.178.686.459.657.637-.028.204-.2.484-.657.484s-.914-.611-.914-.611l-.486.484s.486.764 1.429.764c.714 0 1.571-.433 1.571-1.197 0-.765-.429-1.172-1.2-1.35-.771-.154-.743-.689-.229-.816.515-.102.829.306.829.306Z" fill="#22458C"/><defs><linearGradient id="a" x1="15.5" y1="25" x2="15.5" y2="35" gradientUnits="userSpaceOnUse"><stop stop-color="#181B1E"/><stop offset="1" stop-color="#181B1E"/></linearGradient></defs></svg>