<!-- by TradingView --><svg xmlns="http://www.w3.org/2000/svg" width="56" height="56"><path fill="#F0F3FA" d="M0 0h56v56H0z"/><path d="M25.88 15h-7.36l-1.15 3.63c4.06 1.6 5.28 5.58 5.39 7.37l3.12-11z" fill="#008B29"/><path d="M35.46 15H28.1l-1.15 3.63c4.05 1.6 5.28 5.58 5.38 7.37l3.13-11zM45 15h-7.36l-1.15 3.63c4.05 1.6 5.28 5.58 5.38 7.37L45 15zM20.66 33.62C22.19 27.1 18.2 24.5 16 24l-5 17h7.61l2.05-7.38zm9.57 0c1.54-6.53-2.45-9.13-4.64-9.62l-5.01 17h7.61l2.04-7.38zm9.54 0c1.54-6.53-2.45-9.13-4.64-9.62l-5.01 17h7.61l2.04-7.38z" fill="#002E59"/></svg>