<!-- by TradingView --><svg width="56" height="56" fill="none" xmlns="http://www.w3.org/2000/svg"><path fill="#F0F3FA" d="M0 0h56v56H0z"/><path fill-rule="evenodd" clip-rule="evenodd" d="M6.5 23a.25.25 0 0 1 .25.25v2.5a.25.25 0 1 1-.5 0v-2.5A.25.25 0 0 1 6.5 23Z" fill="#2B2A29"/><path fill-rule="evenodd" clip-rule="evenodd" d="M5 24.5a.25.25 0 0 1 .25-.25h2.5a.25.25 0 1 1 0 .5h-2.5A.25.25 0 0 1 5 24.5ZM10.5 28.553c0 2.36-2.234 4.196-4.493 4.445C6 33 6 32.5 6 32.528h.001C8.048 32.29 10 30.694 10 28.553 10 26.324 11.586 24 14 24h9.847c1.299.001 2.153 1.347 2.153 2.528L26.003 28c0 .204.146.526.497.526s.5-.341.5-.56v-1.742c0 .276 0 .276 0 0 .116-1.28 1.13-2.224 2.5-2.224s2.5.656 2.5 2.066V28c0 .136.09.526.49.526s.51-.4.51-.526v-1.75c0-1.317.837-2.25 2.327-2.25S38 24.746 38 26.297V32c.008.172.108.526.499.526.39 0 .5-.456.5-.509L39 26.044c.1-1.032.95-2.009 2.031-2.009l3.876.001c1.214.091 2.44.926 2.44 2.244 0 1.555-1.816 2.116-3.06 2.389-.923.201-1.787.642-1.787 1.732 0 1.21 1.137 2.108 2.414 2.108 1.272 0 1.586-.912 1.586-1.895v-.64c.024-.313.145-.974 1-.974s1 .494 1 1v1.234c0 .764.228 1.288.884 1.288H51V33h-1.616c-1.184.045-1.381-1-1.381-1.71L48 30c0-.212-.103-.526-.5-.526s-.5.3-.5.527v.613c0 1.255-.548 2.368-2.086 2.368-1.534 0-2.914-1.092-2.914-2.581 0-1.425 1.03-1.944 2.174-2.194 1.004-.22 2.673-.648 2.673-1.927 0-1.055-1.018-1.687-1.97-1.77H41.03c-.853 0-1.44.769-1.532 1.562V32.018c0 .46-.228.982-.999.982-.77 0-.99-.578-1-1v-5.703c0-1.274-1.082-1.823-2.173-1.823-1.05 0-1.827.78-1.827 1.798V28c0 .444-.342 1-1.01 1-.67 0-.99-.563-.99-1v-1.934c0-1.128-1.116-1.592-2-1.592a1.993 1.993 0 0 0-2.001 1.782V28c0 .445-.2 1-1.038 1-.725 0-.957-.672-.957-.975 0-.467-.003-1.03-.004-1.497 0-.938-.598-2.034-1.654-2.054H14c-2.15 0-3.5 2.123-3.5 4.08Z" fill="#2B2A29"/><path fill-rule="evenodd" clip-rule="evenodd" d="M18.5 24.474a4.026 4.026 0 1 0 0 8.052 4.026 4.026 0 0 0 0-8.052ZM14 28.5a4.5 4.5 0 1 1 9 0 4.5 4.5 0 0 1-9 0Z" fill="#2B2A29"/></svg>