<!-- by TradingView --><svg xmlns="http://www.w3.org/2000/svg" width="56" height="56"><path fill="#FA4616" d="M0 0h56v56H0z"/><path fill-rule="evenodd" d="M5.33 22.57c.72-.44 1.6-.58 2.35-.57 1.2.02 2.3.52 2.72.78a.5.5 0 01-.52.85A4.93 4.93 0 007.66 23c-.63-.01-1.3.11-1.81.42-.48.3-.83.76-.85 1.52-.02.63.51 1.19 1.39 1.64a8.4 8.4 0 002.18.74c.48.09 1.07.29 1.56.7.5.43.87 1.07.87 1.96C11 31.82 9.23 33 7.24 33a5.12 5.12 0 01-3.06-.84.5.5 0 11.64-.77c.19.15 1.03.61 2.42.61 1.7 0 2.76-.96 2.76-2.02 0-.58-.22-.94-.52-1.2a2.31 2.31 0 00-1.08-.47 9.38 9.38 0 01-2.47-.84C5 27 3.97 26.17 4 24.91a2.7 2.7 0 011.33-2.34zM14.5 22a.5.5 0 01.5.5v10a.5.5 0 01-1 0v-10a.5.5 0 01.5-.5zm26 0a.5.5 0 01.5.5v10a.5.5 0 01-1 0v-10a.5.5 0 01.5-.5zm-4 10a.5.5 0 01.5.5v4a.5.5 0 01-1 0v-4a.5.5 0 01.5-.5zm-12.2-7.97A2.76 2.76 0 0022 23a2.95 2.95 0 00-2.3 1.06c-.5.6-.7 1.3-.7 1.76v6.68a.5.5 0 01-1 0v-6.68c0-.7.3-1.63.93-2.4A3.95 3.95 0 0122 22c1.42-.03 2.43.6 3.08 1.4.63.78.93 1.74.93 2.42v6.68a.5.5 0 01-1 0v-6.68a3.1 3.1 0 00-.7-1.79zM33 22a4 4 0 00-4 4v3a4 4 0 008 0v-3a4 4 0 00-4-4zm0 1a3 3 0 00-3 3v3a3 3 0 106 0v-3a3 3 0 00-3-3zm15.28 0c-1.28 0-2.49.5-2.9.73a.5.5 0 01-.5-.88 7.7 7.7 0 013.4-.85c.97 0 1.88.3 2.56.77.65.45 1.18 1.12 1.16 1.88v7.85a.5.5 0 11-1 0v-.79a5.15 5.15 0 01-.3.26A4.71 4.71 0 0147.9 33c-1 0-1.95-.27-2.68-.78A2.64 2.64 0 0144 30c.01-.83.24-1.48.62-1.96.37-.47.88-.73 1.39-.8 1.63-.22 2.85-.5 3.72-.75a9.53 9.53 0 001.27-.44v-1.42c0-.27-.2-.67-.73-1.04a3.58 3.58 0 00-1.99-.59zM51 27.13c-.27.1-.6.21-1 .33-.91.26-2.18.54-3.86.77-.26.04-.53.17-.74.44-.21.26-.39.69-.4 1.35 0 .54.27 1.02.8 1.38.52.37 1.28.6 2.1.6.78 0 1.57-.35 2.18-.82.3-.24.55-.49.7-.71.18-.24.22-.4.22-.46v-2.88z" fill="#fff"/></svg>