<!-- by TradingView --><svg xmlns="http://www.w3.org/2000/svg" width="56" height="56"><path fill="#F0F3FA" d="M0 0h56v56H0z"/><path d="M26.04 14a5.44 5.44 0 00-.15 8.98c1.12.79 2.7 1.37 4.75 1.76l4.4.86c2.64.51 4.72 1.44 6.28 2.77.23.2.45.42.66.62 0 0 .01.02.02 0V14H26.04z" fill="#006EC7"/><path d="M40.52 37.31a6.32 6.32 0 00-2.34-3.8 9.09 9.09 0 00-2.3-1.26c-.9-.34-2.35-.78-4.37-1.3-3.55-.91-5.98-1.81-7.3-2.69a8.09 8.09 0 01-3.57-5 8.48 8.48 0 01.85-6.35 8.71 8.71 0 012.62-2.88V14H14v28h25.85c.78-1.48.93-3.19.66-4.69z" fill="#009038"/></svg>