<!-- by TradingView --><svg xmlns="http://www.w3.org/2000/svg" width="56" height="56"><path fill="#F0F3FA" d="M0 0h56v56H0z"/><path d="M14.49 22.82c-4.64.95-8.5.98-10.49-.12 2.63.59 5.59.7 9.6-.72 3.38-1.14 6.23-1.5 8.24.1 1.1.88 2.59 1.83 4.41 2.33 1.5.41 3.2.48 5.36.35-3.26 1.78-6.04.63-8.2-1.02-1.41-1.07-4.28-1.86-8.92-.92z" fill="#FF780C"/><path d="M42.65 21.61c-4.25-.71-7.33.91-11.58 3.36 1.65.12 4.17-.58 7.23-1.77 2.13-.7 3.76-1.05 6.9-.62 3.15.44 6.23.55 6.8-.16-1.22.71-5.1-.1-9.35-.8z" fill="#F15214"/><path fill-rule="evenodd" d="M9 28h-.98c-.26-.58-.64-1-1.26-1-1.01-.01-1.63.58-1.26 1.3.24.48.85.56 1.62.75.73.17 1.42.41 1.7 1.1.3.68.39 1.8-.69 2.48-1.45.73-3.89.44-4.13-1.63h1c.96 2.06 3.96.55 2.67-.55-.6-.43-1.67-.46-2.54-.94a1.83 1.83 0 01-.76-2.21c.28-.79.99-1.32 2.41-1.3 1.1 0 2.15.81 2.22 2zm5 0v3.11c0 1.11-.73 1.89-1.83 1.89h-.32c-1.1 0-1.85-.77-1.85-1.89V28h1v3.11c0 .5.4.89.99.89s1.01-.4 1.01-.89v-2.43c0-.35.17-.68.56-.68H14zm2-2v7h-1v-6.33c0-.35.18-.67.57-.67H16zm7 7h-1l-.7-2h-2.56L18 33h-1l2.28-6.44c.1-.3.35-.56.6-.56h.62l2.5 7zm-2-3l-1-2.72L19 30h2zm20-2v5h-1v-4.33c0-.35.18-.67.57-.67H41zm-10 5v-2.97c0-1.1-1-2.03-2.1-2.03h-.13c-.5 0-.92.2-1.27.5a2.4 2.4 0 00-1.46-.5h-.13c-1.1 0-1.91.92-1.91 2.03V33h1v-2.97c0-.5.35-1.03 1-1.03s1 .5 1 1.03V33h1v-3.22c0-.35.38-.78 1-.78s1 .53 1 1.03v2.3c0 .35.2.67.6.67h.4zm3.17-4c.58 0 1.11.35 1.12 1.03L33 30c0-.68.6-1 1.17-1zm2.3 2H33c.02 1.16 1.92 1.33 2.43.46h.98c-.2 2-4.41 2.32-4.41-.74v-.47c0-2.76 4.55-3.47 4.47.75zm-2.08-5l-.71 1h.73l1.02-1h-1.04zM39 28v1c-.62 0-1 .47-1 1.1V33c0-.03 0 .03 0 0h-1v-3.04c0-1.22.8-1.96 2-1.96zm2-2v1h-1v-.32c0-.36.18-.68.57-.68H41zm3.42 2h.12c.97 0 1.88.54 2.13 1.43h-1.08a1.6 1.6 0 00-1.07-.43c-2.06 0-1.93 3 0 3 .46 0 1-.33 1.24-.7h1.05a2.45 2.45 0 01-2.27 1.7h-.12A2.46 2.46 0 0142 30.55v-.14c0-1.33 1.1-2.41 2.42-2.41zm5.36 0c-1.26 0-1.88.46-2.22 1.48h1c.18-.47 1.2-.59 1.65-.4.4.15.47.57.15.83-.33.28-1.71.13-2.43.64-.72.5-.68 2.02.47 2.36.53.15 1.5.11 2.04-.29l.12.38h1v-3.4c0-.94-.7-1.6-1.78-1.6zM49 30.97c1.01-.18 1.24-.16 1.56-.32v.22c0 .86-.78 1.13-1.49 1.13-.7 0-.77-.91-.07-1.03z" fill="#002474"/></svg>