<!-- by TradingView --><svg xmlns="http://www.w3.org/2000/svg" width="56" height="56"><path fill="url(#ay41spii2)" d="M0 0h56v56H0z"/><path d="M29 29v17l17-17H29z" fill="#B61218"/><path d="M10 27l18-17 18 17H10z" fill="#AC0F16"/><path d="M10 27l18-17v10.82L10 27z" fill="#ED1B24"/><path d="M28 20.82V10l18 17-18-6.18z" fill="#C5161D"/><path d="M29 29v17l5.56-11.46L29 29z" fill="#B81319"/><path d="M29 29l5.56 5.54L46 29H29z" fill="#ED1B24"/><path d="M42.28 30.55H30.85L29 29l1.78 1.78H42.3L46 29l-3.72 1.54z" fill="url(#by41spii2)"/><path d="M27 29v17L10 29h17z" fill="#CA171D"/><path d="M27 29v17l-5.55-11.46L27 29z" fill="#B21117"/><path d="M27 29l-5.56 5.54L10 29h17z" fill="#ED1B24"/><path d="M28 13.42L15.9 24.98h24.2L28 13.42z" fill="#E11923"/><path d="M30.8 30.8v11.5l11.5-11.5H30.8z" fill="#C9151E"/><path d="M25.21 42.31V30.8H13.7l11.5 11.51z" fill="#D81921"/><path d="M15.9 24.98l-4.04 1.38 3.95-1.6 12.18-11.33-12.08 11.55z" fill="url(#cy41spii2)"/><path d="M13.72 30.55h11.44L26.99 29l-1.78 1.79H13.7L10 29l3.72 1.54z" fill="url(#dy41spii2)"/><defs><linearGradient id="ay41spii2" x1="10.42" y1="9.71" x2="68.15" y2="76.02" gradientUnits="userSpaceOnUse"><stop stop-color="#1A1E21"/><stop offset="1" stop-color="#06060A"/></linearGradient><linearGradient id="by41spii2" x1="29.01" y1="29.9" x2="45.47" y2="29.9" gradientUnits="userSpaceOnUse"><stop stop-color="#EF4D37"/><stop offset=".43" stop-color="#FDF7F3"/><stop offset="1" stop-color="#EF4D37"/></linearGradient><linearGradient id="cy41spii2" x1="27.99" y1="13.87" x2="12.99" y2="26.59" gradientUnits="userSpaceOnUse"><stop stop-color="#EF4D37"/><stop offset=".75" stop-color="#FDF7F3"/><stop offset="1" stop-color="#EF4D37"/></linearGradient><linearGradient id="dy41spii2" x1="26.99" y1="29.9" x2="10.53" y2="29.9" gradientUnits="userSpaceOnUse"><stop stop-color="#EF4D37"/><stop offset=".5" stop-color="#FDF7F3"/><stop offset="1" stop-color="#F2694C"/></linearGradient></defs></svg>