<!-- by TradingView --><svg xmlns="http://www.w3.org/2000/svg" width="56" height="56"><path fill="url(#axqbexmj3)" d="M0 0h56v56H0z"/><path d="M16 30.53l8-8.87v6.95l-8.62 9.58c-.6.58-1.42.78-1.75.8A2.37 2.37 0 0111 36.64V22.3c0-.74.74-2.31 2.51-2.31A2.49 2.49 0 0116 22.31v8.22z" fill="url(#bxqbexmj3)"/><path d="M40 28.47l-8 8.84v-6.95l8.62-9.55c.6-.58 1.42-.78 1.75-.8A2.37 2.37 0 0145 22.36V36.7a2.5 2.5 0 01-2.51 2.3A2.49 2.49 0 0140 36.69v-8.22z" fill="url(#cxqbexmj3)"/><path d="M28 19a2.5 2.5 0 100-5 2.5 2.5 0 000 5zm0 1a2.5 2.5 0 00-2.5 2.5v14a2.5 2.5 0 005 0v-14A2.5 2.5 0 0028 20z" fill="url(#dxqbexmj3)"/><defs><linearGradient id="axqbexmj3" x1="10.42" y1="9.71" x2="68.15" y2="76.02" gradientUnits="userSpaceOnUse"><stop stop-color="#1A1E21"/><stop offset="1" stop-color="#06060A"/></linearGradient><linearGradient id="bxqbexmj3" x1="20.43" y1="20.91" x2="11.84" y2="38.93" gradientUnits="userSpaceOnUse"><stop offset=".08" stop-color="#FA7DAA"/><stop offset="1" stop-color="#EF3177"/></linearGradient><linearGradient id="cxqbexmj3" x1="36.12" y1="38.32" x2="43.62" y2="20.05" gradientUnits="userSpaceOnUse"><stop stop-color="#F85792"/><stop offset="1" stop-color="#FDAECB"/></linearGradient><linearGradient id="dxqbexmj3" x1="28.06" y1="14.16" x2="28.06" y2="38.88" gradientUnits="userSpaceOnUse"><stop stop-color="#fff"/><stop offset="1" stop-color="#C0C1C3"/></linearGradient></defs></svg>