<!-- by TradingView --><svg width="56" height="56" fill="none" xmlns="http://www.w3.org/2000/svg"><path fill="#F0F3FA" d="M0 0h56v56H0z"/><path fill-rule="evenodd" clip-rule="evenodd" d="M32 23v10h3v-8.5s2-.273 2 1.5c0 1.773-1.5 2-1.5 2l2.5 5h3l-3-4.5s2-.479 2-2.5c0-2.057-1.989-3-3.25-3H32ZM31 23v1h-2.5s-.5 0-.5.731V26h3v1h-3v6h-3v-8.127S25.03 23 26.698 23H31ZM4 33h1.5v-7l2.776 7 2.727-7v7H14v-8.685c0-.208-.337-1.315-1.784-1.315-1.448 0-1.684.934-1.684.934L9 27.498l-1.498-3.495S7.266 22.965 5.65 23C4.034 23.035 4 24.315 4 24.315V33ZM19.422 23c1.297 0 1.662 1.014 1.662 1.014L24 33h-3l-.747-2h-3.092l-.532 2H15l2.726-8.427S18.126 23 19.422 23ZM20 30h-2.48l1.204-4L20 30ZM46.422 23c1.297 0 1.662 1.014 1.662 1.014L51.5 35h-3l-1.247-4h-3.092l-.532 2H42l2.726-8.427S45.126 23 46.422 23ZM47 30h-2.48l1.204-4L47 30Z" fill="#008843"/><path d="M4 33h1.5v-2H4v2ZM25 31h3v2h-3v-2ZM14 31h-2.997v2H14v-2ZM9.055 31H7.483l.793 2 .78-2ZM15.647 31h1.514l-.532 2H15l.647-2ZM20.253 31h3.098L24 33h-3l-.747-2ZM32 31h3v2h-3v-2ZM37 31h2.667L41 33h-3l-1-2ZM42.647 31h1.514l-.532 2H42l.647-2ZM47.253 31l1.247 4h3l-1.244-4h-3.003Z" fill="#6BBA91"/></svg>